<mxfile host="app.diagrams.net" modified="2024-02-29T16:06:12.539Z" agent="Mozilla/5.0 (X11; Linux x86_64) AppleWebKit/537.36 (KHTML, like Gecko) Chrome/122.0.0.0 Safari/537.36 Edg/122.0.0.0" etag="95sVz16uQxryYnBeAYL8" version="23.1.6" type="device">
  <diagram id="nApqOs3oJc1y2MJbmaid" name="Page-1">
    <mxGraphModel dx="6287" dy="3600" grid="1" gridSize="10" guides="1" tooltips="1" connect="1" arrows="1" fold="1" page="0" pageScale="1" pageWidth="1654" pageHeight="1169" math="0" shadow="0">
      <root>
        <mxCell id="0" />
        <mxCell id="1" parent="0" />
        <mxCell id="_kKipss2QhEB_xOAoXgh-2" value="" style="group" parent="1" vertex="1" connectable="0">
          <mxGeometry x="430" y="60" width="220" height="470" as="geometry" />
        </mxCell>
        <mxCell id="_kKipss2QhEB_xOAoXgh-3" value="" style="group" parent="_kKipss2QhEB_xOAoXgh-2" vertex="1" connectable="0">
          <mxGeometry x="100" y="14.842105263157894" width="120" height="410.6315789473684" as="geometry" />
        </mxCell>
        <mxCell id="_kKipss2QhEB_xOAoXgh-4" value="TRAMPOLINE" style="rounded=0;whiteSpace=wrap;html=1;" parent="_kKipss2QhEB_xOAoXgh-3" vertex="1">
          <mxGeometry width="120" height="34.63157894736842" as="geometry" />
        </mxCell>
        <mxCell id="_kKipss2QhEB_xOAoXgh-5" value="TRAPFRAME" style="rounded=0;whiteSpace=wrap;html=1;" parent="_kKipss2QhEB_xOAoXgh-3" vertex="1">
          <mxGeometry y="34.63157894736842" width="120" height="34.63157894736842" as="geometry" />
        </mxCell>
        <mxCell id="_kKipss2QhEB_xOAoXgh-6" value="heap" style="rounded=0;whiteSpace=wrap;html=1;" parent="_kKipss2QhEB_xOAoXgh-3" vertex="1">
          <mxGeometry y="69.26315789473684" width="120" height="113.7894736842105" as="geometry" />
        </mxCell>
        <mxCell id="_kKipss2QhEB_xOAoXgh-7" value="stack" style="rounded=0;whiteSpace=wrap;html=1;" parent="_kKipss2QhEB_xOAoXgh-3" vertex="1">
          <mxGeometry y="183.05263157894734" width="120" height="39.57894736842105" as="geometry" />
        </mxCell>
        <mxCell id="_kKipss2QhEB_xOAoXgh-8" value="guard page" style="rounded=0;whiteSpace=wrap;html=1;" parent="_kKipss2QhEB_xOAoXgh-3" vertex="1">
          <mxGeometry y="222.63157894736838" width="120" height="39.57894736842105" as="geometry" />
        </mxCell>
        <mxCell id="_kKipss2QhEB_xOAoXgh-9" value="data" style="rounded=0;whiteSpace=wrap;html=1;" parent="_kKipss2QhEB_xOAoXgh-3" vertex="1">
          <mxGeometry y="262.2105263157894" width="120" height="39.57894736842105" as="geometry" />
        </mxCell>
        <mxCell id="_kKipss2QhEB_xOAoXgh-10" value="text" style="rounded=0;whiteSpace=wrap;html=1;" parent="_kKipss2QhEB_xOAoXgh-3" vertex="1">
          <mxGeometry y="301.78947368421046" width="120" height="108.84210526315788" as="geometry" />
        </mxCell>
        <mxCell id="_kKipss2QhEB_xOAoXgh-11" style="rounded=0;orthogonalLoop=1;jettySize=auto;html=1;exitX=1;exitY=0.5;exitDx=0;exitDy=0;entryX=0;entryY=1;entryDx=0;entryDy=0;" parent="_kKipss2QhEB_xOAoXgh-2" source="_kKipss2QhEB_xOAoXgh-12" target="_kKipss2QhEB_xOAoXgh-10" edge="1">
          <mxGeometry relative="1" as="geometry" />
        </mxCell>
        <mxCell id="_kKipss2QhEB_xOAoXgh-12" value="&lt;font style=&quot;font-size: 16px;&quot;&gt;0&lt;/font&gt;" style="text;html=1;strokeColor=none;fillColor=none;align=center;verticalAlign=middle;whiteSpace=wrap;rounded=0;" parent="_kKipss2QhEB_xOAoXgh-2" vertex="1">
          <mxGeometry x="40" y="410.6315789473684" width="20" height="29.684210526315788" as="geometry" />
        </mxCell>
        <mxCell id="_kKipss2QhEB_xOAoXgh-13" style="rounded=0;orthogonalLoop=1;jettySize=auto;html=1;exitX=1;exitY=0.5;exitDx=0;exitDy=0;entryX=0;entryY=0;entryDx=0;entryDy=0;" parent="_kKipss2QhEB_xOAoXgh-2" source="_kKipss2QhEB_xOAoXgh-14" target="_kKipss2QhEB_xOAoXgh-4" edge="1">
          <mxGeometry relative="1" as="geometry" />
        </mxCell>
        <mxCell id="_kKipss2QhEB_xOAoXgh-14" value="&lt;font style=&quot;font-size: 16px;&quot;&gt;MAXVA&lt;/font&gt;" style="text;html=1;strokeColor=none;fillColor=none;align=center;verticalAlign=middle;whiteSpace=wrap;rounded=0;" parent="_kKipss2QhEB_xOAoXgh-2" vertex="1">
          <mxGeometry width="60" height="29.684210526315788" as="geometry" />
        </mxCell>
        <mxCell id="_kKipss2QhEB_xOAoXgh-15" value="&lt;b&gt;User Address Space A&lt;/b&gt;" style="text;html=1;strokeColor=none;fillColor=none;align=center;verticalAlign=middle;whiteSpace=wrap;rounded=0;" parent="_kKipss2QhEB_xOAoXgh-2" vertex="1">
          <mxGeometry x="40" y="440.3157894736842" width="140" height="29.684210526315788" as="geometry" />
        </mxCell>
        <mxCell id="_kKipss2QhEB_xOAoXgh-75" value="" style="ellipse;whiteSpace=wrap;html=1;aspect=fixed;" parent="_kKipss2QhEB_xOAoXgh-2" vertex="1">
          <mxGeometry x="40" y="215" width="40" height="40" as="geometry" />
        </mxCell>
        <mxCell id="_kKipss2QhEB_xOAoXgh-30" value="" style="rounded=0;whiteSpace=wrap;html=1;fillColor=#f5f5f5;fontColor=#333333;strokeColor=#666666;" parent="1" vertex="1">
          <mxGeometry x="1310" y="260" width="150" height="470" as="geometry" />
        </mxCell>
        <mxCell id="_kKipss2QhEB_xOAoXgh-31" value="&lt;b&gt;Physical Memory&lt;/b&gt;" style="text;html=1;strokeColor=none;fillColor=none;align=center;verticalAlign=middle;whiteSpace=wrap;rounded=0;" parent="1" vertex="1">
          <mxGeometry x="1315" y="219.99578947368417" width="140" height="29.684210526315788" as="geometry" />
        </mxCell>
        <mxCell id="_kKipss2QhEB_xOAoXgh-36" value="" style="rounded=0;whiteSpace=wrap;html=1;" parent="1" vertex="1">
          <mxGeometry x="1310" y="500" width="150" height="60" as="geometry" />
        </mxCell>
        <mxCell id="_kKipss2QhEB_xOAoXgh-47" value="" style="endArrow=none;html=1;rounded=0;exitX=1;exitY=0;exitDx=0;exitDy=0;entryX=0;entryY=0;entryDx=0;entryDy=0;strokeColor=#0000FF;" parent="1" source="_kKipss2QhEB_xOAoXgh-9" target="_kKipss2QhEB_xOAoXgh-36" edge="1">
          <mxGeometry width="50" height="50" relative="1" as="geometry">
            <mxPoint x="830" y="580" as="sourcePoint" />
            <mxPoint x="880" y="530" as="targetPoint" />
          </mxGeometry>
        </mxCell>
        <mxCell id="NhgTdZ-Xcg6zzgM0xqMc-21" value="PTE.COW =&amp;nbsp;&amp;nbsp;0→&lt;font style=&quot;border-color: var(--border-color); font-size: 12px;&quot; color=&quot;#ff0000&quot;&gt;1&lt;/font&gt;&lt;br style=&quot;border-color: var(--border-color); font-size: 12px;&quot;&gt;&lt;span style=&quot;font-size: 12px;&quot;&gt;PTE.W = 1→&lt;/span&gt;&lt;font style=&quot;border-color: var(--border-color); font-size: 12px;&quot; color=&quot;#ff0000&quot;&gt;0&lt;/font&gt;" style="edgeLabel;html=1;align=center;verticalAlign=middle;resizable=0;points=[];" parent="_kKipss2QhEB_xOAoXgh-47" vertex="1" connectable="0">
          <mxGeometry x="0.0963" y="1" relative="1" as="geometry">
            <mxPoint x="32" y="8" as="offset" />
          </mxGeometry>
        </mxCell>
        <mxCell id="_kKipss2QhEB_xOAoXgh-48" value="" style="endArrow=none;html=1;rounded=0;exitX=1;exitY=0;exitDx=0;exitDy=0;entryX=0;entryY=1;entryDx=0;entryDy=0;strokeColor=#0000FF;" parent="1" source="_kKipss2QhEB_xOAoXgh-10" target="_kKipss2QhEB_xOAoXgh-36" edge="1">
          <mxGeometry width="50" height="50" relative="1" as="geometry">
            <mxPoint x="780" y="550" as="sourcePoint" />
            <mxPoint x="830" y="500" as="targetPoint" />
          </mxGeometry>
        </mxCell>
        <mxCell id="_kKipss2QhEB_xOAoXgh-51" value="" style="group" parent="1" vertex="1" connectable="0">
          <mxGeometry x="430" y="560" width="220" height="470" as="geometry" />
        </mxCell>
        <mxCell id="_kKipss2QhEB_xOAoXgh-52" value="" style="group" parent="_kKipss2QhEB_xOAoXgh-51" vertex="1" connectable="0">
          <mxGeometry x="100" y="14.842105263157894" width="120" height="410.6315789473684" as="geometry" />
        </mxCell>
        <mxCell id="_kKipss2QhEB_xOAoXgh-53" value="TRAMPOLINE" style="rounded=0;whiteSpace=wrap;html=1;" parent="_kKipss2QhEB_xOAoXgh-52" vertex="1">
          <mxGeometry width="120" height="34.63157894736842" as="geometry" />
        </mxCell>
        <mxCell id="_kKipss2QhEB_xOAoXgh-54" value="TRAPFRAME" style="rounded=0;whiteSpace=wrap;html=1;" parent="_kKipss2QhEB_xOAoXgh-52" vertex="1">
          <mxGeometry y="34.63157894736842" width="120" height="34.63157894736842" as="geometry" />
        </mxCell>
        <mxCell id="_kKipss2QhEB_xOAoXgh-55" value="heap" style="rounded=0;whiteSpace=wrap;html=1;" parent="_kKipss2QhEB_xOAoXgh-52" vertex="1">
          <mxGeometry y="69.26315789473684" width="120" height="113.7894736842105" as="geometry" />
        </mxCell>
        <mxCell id="_kKipss2QhEB_xOAoXgh-56" value="stack" style="rounded=0;whiteSpace=wrap;html=1;" parent="_kKipss2QhEB_xOAoXgh-52" vertex="1">
          <mxGeometry y="183.05263157894734" width="120" height="39.57894736842105" as="geometry" />
        </mxCell>
        <mxCell id="_kKipss2QhEB_xOAoXgh-57" value="guard page" style="rounded=0;whiteSpace=wrap;html=1;" parent="_kKipss2QhEB_xOAoXgh-52" vertex="1">
          <mxGeometry y="222.63157894736838" width="120" height="39.57894736842105" as="geometry" />
        </mxCell>
        <mxCell id="_kKipss2QhEB_xOAoXgh-58" value="data" style="rounded=0;whiteSpace=wrap;html=1;" parent="_kKipss2QhEB_xOAoXgh-52" vertex="1">
          <mxGeometry y="262.2105263157894" width="120" height="39.57894736842105" as="geometry" />
        </mxCell>
        <mxCell id="_kKipss2QhEB_xOAoXgh-59" value="text" style="rounded=0;whiteSpace=wrap;html=1;" parent="_kKipss2QhEB_xOAoXgh-52" vertex="1">
          <mxGeometry y="301.78947368421046" width="120" height="108.84210526315788" as="geometry" />
        </mxCell>
        <mxCell id="_kKipss2QhEB_xOAoXgh-60" style="rounded=0;orthogonalLoop=1;jettySize=auto;html=1;exitX=1;exitY=0.5;exitDx=0;exitDy=0;entryX=0;entryY=1;entryDx=0;entryDy=0;" parent="_kKipss2QhEB_xOAoXgh-51" source="_kKipss2QhEB_xOAoXgh-61" target="_kKipss2QhEB_xOAoXgh-59" edge="1">
          <mxGeometry relative="1" as="geometry" />
        </mxCell>
        <mxCell id="_kKipss2QhEB_xOAoXgh-61" value="&lt;font style=&quot;font-size: 16px;&quot;&gt;0&lt;/font&gt;" style="text;html=1;strokeColor=none;fillColor=none;align=center;verticalAlign=middle;whiteSpace=wrap;rounded=0;" parent="_kKipss2QhEB_xOAoXgh-51" vertex="1">
          <mxGeometry x="40" y="410.6315789473684" width="20" height="29.684210526315788" as="geometry" />
        </mxCell>
        <mxCell id="_kKipss2QhEB_xOAoXgh-62" style="rounded=0;orthogonalLoop=1;jettySize=auto;html=1;exitX=1;exitY=0.5;exitDx=0;exitDy=0;entryX=0;entryY=0;entryDx=0;entryDy=0;" parent="_kKipss2QhEB_xOAoXgh-51" source="_kKipss2QhEB_xOAoXgh-63" target="_kKipss2QhEB_xOAoXgh-53" edge="1">
          <mxGeometry relative="1" as="geometry" />
        </mxCell>
        <mxCell id="_kKipss2QhEB_xOAoXgh-63" value="&lt;font style=&quot;font-size: 16px;&quot;&gt;MAXVA&lt;/font&gt;" style="text;html=1;strokeColor=none;fillColor=none;align=center;verticalAlign=middle;whiteSpace=wrap;rounded=0;" parent="_kKipss2QhEB_xOAoXgh-51" vertex="1">
          <mxGeometry width="60" height="29.684210526315788" as="geometry" />
        </mxCell>
        <mxCell id="_kKipss2QhEB_xOAoXgh-64" value="&lt;b&gt;User Address Space B&lt;/b&gt;" style="text;html=1;strokeColor=none;fillColor=none;align=center;verticalAlign=middle;whiteSpace=wrap;rounded=0;" parent="_kKipss2QhEB_xOAoXgh-51" vertex="1">
          <mxGeometry x="40" y="440.3157894736842" width="140" height="29.684210526315788" as="geometry" />
        </mxCell>
        <mxCell id="_kKipss2QhEB_xOAoXgh-76" value="" style="ellipse;whiteSpace=wrap;html=1;aspect=fixed;" parent="_kKipss2QhEB_xOAoXgh-51" vertex="1">
          <mxGeometry x="40" y="220" width="40" height="40" as="geometry" />
        </mxCell>
        <mxCell id="_kKipss2QhEB_xOAoXgh-70" value="" style="endArrow=none;html=1;rounded=0;exitX=1;exitY=0;exitDx=0;exitDy=0;entryX=0;entryY=0;entryDx=0;entryDy=0;strokeColor=#00CC00;" parent="1" source="_kKipss2QhEB_xOAoXgh-58" target="_kKipss2QhEB_xOAoXgh-36" edge="1">
          <mxGeometry width="50" height="50" relative="1" as="geometry">
            <mxPoint x="650" y="857" as="sourcePoint" />
            <mxPoint x="970" y="440" as="targetPoint" />
          </mxGeometry>
        </mxCell>
        <mxCell id="NhgTdZ-Xcg6zzgM0xqMc-22" value="PTE.COW =&amp;nbsp;&amp;nbsp;0→&lt;font style=&quot;border-color: var(--border-color); font-size: 12px;&quot; color=&quot;#ff0000&quot;&gt;1&lt;/font&gt;&lt;br style=&quot;border-color: var(--border-color); font-size: 12px;&quot;&gt;&lt;span style=&quot;font-size: 12px;&quot;&gt;PTE.W = 1→&lt;/span&gt;&lt;font style=&quot;border-color: var(--border-color); font-size: 12px;&quot; color=&quot;#ff0000&quot;&gt;0&lt;/font&gt;" style="edgeLabel;html=1;align=center;verticalAlign=middle;resizable=0;points=[];" parent="_kKipss2QhEB_xOAoXgh-70" vertex="1" connectable="0">
          <mxGeometry x="0.0311" relative="1" as="geometry">
            <mxPoint x="30" y="-74" as="offset" />
          </mxGeometry>
        </mxCell>
        <mxCell id="_kKipss2QhEB_xOAoXgh-71" value="" style="endArrow=none;html=1;rounded=0;exitX=1;exitY=0;exitDx=0;exitDy=0;entryX=0;entryY=1;entryDx=0;entryDy=0;strokeColor=#00CC00;" parent="1" source="_kKipss2QhEB_xOAoXgh-59" target="_kKipss2QhEB_xOAoXgh-36" edge="1">
          <mxGeometry width="50" height="50" relative="1" as="geometry">
            <mxPoint x="650" y="917" as="sourcePoint" />
            <mxPoint x="970" y="520" as="targetPoint" />
          </mxGeometry>
        </mxCell>
        <mxCell id="_kKipss2QhEB_xOAoXgh-77" style="edgeStyle=orthogonalEdgeStyle;rounded=0;orthogonalLoop=1;jettySize=auto;html=1;exitX=1;exitY=0.5;exitDx=0;exitDy=0;entryX=0;entryY=0.5;entryDx=0;entryDy=0;curved=1;" parent="1" source="_kKipss2QhEB_xOAoXgh-74" target="_kKipss2QhEB_xOAoXgh-75" edge="1">
          <mxGeometry relative="1" as="geometry" />
        </mxCell>
        <mxCell id="_kKipss2QhEB_xOAoXgh-78" style="edgeStyle=orthogonalEdgeStyle;rounded=0;orthogonalLoop=1;jettySize=auto;html=1;exitX=0.5;exitY=1;exitDx=0;exitDy=0;entryX=0;entryY=0.5;entryDx=0;entryDy=0;curved=1;" parent="1" source="_kKipss2QhEB_xOAoXgh-74" target="_kKipss2QhEB_xOAoXgh-76" edge="1">
          <mxGeometry relative="1" as="geometry" />
        </mxCell>
        <mxCell id="_kKipss2QhEB_xOAoXgh-74" value="" style="ellipse;whiteSpace=wrap;html=1;aspect=fixed;" parent="1" vertex="1">
          <mxGeometry x="180" y="270" width="50" height="50" as="geometry" />
        </mxCell>
        <mxCell id="_kKipss2QhEB_xOAoXgh-82" style="edgeStyle=orthogonalEdgeStyle;rounded=0;orthogonalLoop=1;jettySize=auto;html=1;entryX=0;entryY=0.5;entryDx=0;entryDy=0;" parent="1" source="_kKipss2QhEB_xOAoXgh-81" target="_kKipss2QhEB_xOAoXgh-74" edge="1">
          <mxGeometry relative="1" as="geometry">
            <mxPoint x="110" y="265" as="sourcePoint" />
          </mxGeometry>
        </mxCell>
        <mxCell id="_kKipss2QhEB_xOAoXgh-81" value="&lt;font style=&quot;font-size: 17px;&quot;&gt;Fork&lt;/font&gt;" style="text;html=1;align=center;verticalAlign=middle;whiteSpace=wrap;rounded=0;" parent="1" vertex="1">
          <mxGeometry x="30" y="275" width="110" height="40" as="geometry" />
        </mxCell>
        <mxCell id="_kKipss2QhEB_xOAoXgh-115" value="" style="group" parent="1" vertex="1" connectable="0">
          <mxGeometry x="1740" y="70" width="220" height="470" as="geometry" />
        </mxCell>
        <mxCell id="_kKipss2QhEB_xOAoXgh-116" value="" style="group" parent="_kKipss2QhEB_xOAoXgh-115" vertex="1" connectable="0">
          <mxGeometry x="100" y="14.842105263157894" width="120" height="410.6315789473684" as="geometry" />
        </mxCell>
        <mxCell id="_kKipss2QhEB_xOAoXgh-117" value="TRAMPOLINE" style="rounded=0;whiteSpace=wrap;html=1;" parent="_kKipss2QhEB_xOAoXgh-116" vertex="1">
          <mxGeometry width="120" height="34.63157894736842" as="geometry" />
        </mxCell>
        <mxCell id="_kKipss2QhEB_xOAoXgh-118" value="TRAPFRAME" style="rounded=0;whiteSpace=wrap;html=1;" parent="_kKipss2QhEB_xOAoXgh-116" vertex="1">
          <mxGeometry y="34.63157894736842" width="120" height="34.63157894736842" as="geometry" />
        </mxCell>
        <mxCell id="_kKipss2QhEB_xOAoXgh-119" value="heap" style="rounded=0;whiteSpace=wrap;html=1;" parent="_kKipss2QhEB_xOAoXgh-116" vertex="1">
          <mxGeometry y="69.26315789473684" width="120" height="113.7894736842105" as="geometry" />
        </mxCell>
        <mxCell id="_kKipss2QhEB_xOAoXgh-120" value="stack" style="rounded=0;whiteSpace=wrap;html=1;" parent="_kKipss2QhEB_xOAoXgh-116" vertex="1">
          <mxGeometry y="183.05263157894734" width="120" height="39.57894736842105" as="geometry" />
        </mxCell>
        <mxCell id="_kKipss2QhEB_xOAoXgh-121" value="guard page" style="rounded=0;whiteSpace=wrap;html=1;" parent="_kKipss2QhEB_xOAoXgh-116" vertex="1">
          <mxGeometry y="222.63157894736838" width="120" height="39.57894736842105" as="geometry" />
        </mxCell>
        <mxCell id="_kKipss2QhEB_xOAoXgh-122" value="data" style="rounded=0;whiteSpace=wrap;html=1;" parent="_kKipss2QhEB_xOAoXgh-116" vertex="1">
          <mxGeometry y="262.2105263157894" width="120" height="39.57894736842105" as="geometry" />
        </mxCell>
        <mxCell id="_kKipss2QhEB_xOAoXgh-123" value="text" style="rounded=0;whiteSpace=wrap;html=1;" parent="_kKipss2QhEB_xOAoXgh-116" vertex="1">
          <mxGeometry y="301.78947368421046" width="120" height="108.84210526315788" as="geometry" />
        </mxCell>
        <mxCell id="_kKipss2QhEB_xOAoXgh-124" style="rounded=0;orthogonalLoop=1;jettySize=auto;html=1;exitX=1;exitY=0.5;exitDx=0;exitDy=0;entryX=0;entryY=1;entryDx=0;entryDy=0;" parent="_kKipss2QhEB_xOAoXgh-115" source="_kKipss2QhEB_xOAoXgh-125" target="_kKipss2QhEB_xOAoXgh-123" edge="1">
          <mxGeometry relative="1" as="geometry" />
        </mxCell>
        <mxCell id="_kKipss2QhEB_xOAoXgh-125" value="&lt;font style=&quot;font-size: 16px;&quot;&gt;0&lt;/font&gt;" style="text;html=1;strokeColor=none;fillColor=none;align=center;verticalAlign=middle;whiteSpace=wrap;rounded=0;" parent="_kKipss2QhEB_xOAoXgh-115" vertex="1">
          <mxGeometry x="40" y="410.6315789473684" width="20" height="29.684210526315788" as="geometry" />
        </mxCell>
        <mxCell id="_kKipss2QhEB_xOAoXgh-126" style="rounded=0;orthogonalLoop=1;jettySize=auto;html=1;exitX=1;exitY=0.5;exitDx=0;exitDy=0;entryX=0;entryY=0;entryDx=0;entryDy=0;" parent="_kKipss2QhEB_xOAoXgh-115" source="_kKipss2QhEB_xOAoXgh-127" target="_kKipss2QhEB_xOAoXgh-117" edge="1">
          <mxGeometry relative="1" as="geometry" />
        </mxCell>
        <mxCell id="_kKipss2QhEB_xOAoXgh-127" value="&lt;font style=&quot;font-size: 16px;&quot;&gt;MAXVA&lt;/font&gt;" style="text;html=1;strokeColor=none;fillColor=none;align=center;verticalAlign=middle;whiteSpace=wrap;rounded=0;" parent="_kKipss2QhEB_xOAoXgh-115" vertex="1">
          <mxGeometry width="60" height="29.684210526315788" as="geometry" />
        </mxCell>
        <mxCell id="_kKipss2QhEB_xOAoXgh-128" value="&lt;b&gt;User Address Space A&lt;/b&gt;" style="text;html=1;strokeColor=none;fillColor=none;align=center;verticalAlign=middle;whiteSpace=wrap;rounded=0;" parent="_kKipss2QhEB_xOAoXgh-115" vertex="1">
          <mxGeometry x="40" y="440.3157894736842" width="140" height="29.684210526315788" as="geometry" />
        </mxCell>
        <mxCell id="_kKipss2QhEB_xOAoXgh-171" value="" style="shape=flexArrow;endArrow=classic;html=1;rounded=0;endWidth=32;endSize=7.385714285714286;width=14.285714285714286;fontColor=#0000FF;strokeColor=#0000FF;strokeWidth=3;" parent="_kKipss2QhEB_xOAoXgh-115" edge="1">
          <mxGeometry width="50" height="50" relative="1" as="geometry">
            <mxPoint x="50" y="290.28999999999996" as="sourcePoint" />
            <mxPoint x="100" y="290" as="targetPoint" />
          </mxGeometry>
        </mxCell>
        <mxCell id="_kKipss2QhEB_xOAoXgh-172" value="Write" style="edgeLabel;html=1;align=center;verticalAlign=middle;resizable=0;points=[];fontColor=#0000FF;fontSize=13;fontStyle=1" parent="_kKipss2QhEB_xOAoXgh-171" vertex="1" connectable="0">
          <mxGeometry x="-0.1742" y="1" relative="1" as="geometry">
            <mxPoint x="-16" y="-5" as="offset" />
          </mxGeometry>
        </mxCell>
        <mxCell id="_kKipss2QhEB_xOAoXgh-130" value="" style="rounded=0;whiteSpace=wrap;html=1;fillColor=#f5f5f5;fontColor=#333333;strokeColor=#666666;" parent="1" vertex="1">
          <mxGeometry x="2675" y="280" width="150" height="470" as="geometry" />
        </mxCell>
        <mxCell id="_kKipss2QhEB_xOAoXgh-131" value="&lt;b&gt;Physical Memory&lt;/b&gt;" style="text;html=1;strokeColor=none;fillColor=none;align=center;verticalAlign=middle;whiteSpace=wrap;rounded=0;" parent="1" vertex="1">
          <mxGeometry x="2680" y="239.99578947368417" width="140" height="29.684210526315788" as="geometry" />
        </mxCell>
        <mxCell id="_kKipss2QhEB_xOAoXgh-134" value="PTE.COW = 1&amp;nbsp;&lt;br style=&quot;border-color: var(--border-color);&quot;&gt;PTE.W = 0" style="rounded=0;whiteSpace=wrap;html=1;" parent="1" vertex="1">
          <mxGeometry x="2675" y="537.89" width="150" height="50" as="geometry" />
        </mxCell>
        <mxCell id="_kKipss2QhEB_xOAoXgh-140" value="" style="endArrow=none;html=1;rounded=0;exitX=1;exitY=0;exitDx=0;exitDy=0;entryX=0;entryY=0;entryDx=0;entryDy=0;strokeColor=#0000FF;" parent="1" source="_kKipss2QhEB_xOAoXgh-122" target="NhgTdZ-Xcg6zzgM0xqMc-13" edge="1">
          <mxGeometry width="50" height="50" relative="1" as="geometry">
            <mxPoint x="2140" y="590" as="sourcePoint" />
            <mxPoint x="2190" y="540" as="targetPoint" />
          </mxGeometry>
        </mxCell>
        <mxCell id="_kKipss2QhEB_xOAoXgh-141" value="" style="endArrow=none;html=1;rounded=0;exitX=1;exitY=0;exitDx=0;exitDy=0;entryX=0;entryY=1;entryDx=0;entryDy=0;strokeColor=#0000FF;" parent="1" source="_kKipss2QhEB_xOAoXgh-123" target="NhgTdZ-Xcg6zzgM0xqMc-13" edge="1">
          <mxGeometry width="50" height="50" relative="1" as="geometry">
            <mxPoint x="2090" y="560" as="sourcePoint" />
            <mxPoint x="2140" y="510" as="targetPoint" />
          </mxGeometry>
        </mxCell>
        <mxCell id="_kKipss2QhEB_xOAoXgh-144" value="" style="group" parent="1" vertex="1" connectable="0">
          <mxGeometry x="1740" y="570" width="220" height="470" as="geometry" />
        </mxCell>
        <mxCell id="_kKipss2QhEB_xOAoXgh-145" value="" style="group" parent="_kKipss2QhEB_xOAoXgh-144" vertex="1" connectable="0">
          <mxGeometry x="100" y="14.842105263157894" width="120" height="410.6315789473684" as="geometry" />
        </mxCell>
        <mxCell id="_kKipss2QhEB_xOAoXgh-146" value="TRAMPOLINE" style="rounded=0;whiteSpace=wrap;html=1;" parent="_kKipss2QhEB_xOAoXgh-145" vertex="1">
          <mxGeometry width="120" height="34.63157894736842" as="geometry" />
        </mxCell>
        <mxCell id="_kKipss2QhEB_xOAoXgh-147" value="TRAPFRAME" style="rounded=0;whiteSpace=wrap;html=1;" parent="_kKipss2QhEB_xOAoXgh-145" vertex="1">
          <mxGeometry y="34.63157894736842" width="120" height="34.63157894736842" as="geometry" />
        </mxCell>
        <mxCell id="_kKipss2QhEB_xOAoXgh-148" value="heap" style="rounded=0;whiteSpace=wrap;html=1;" parent="_kKipss2QhEB_xOAoXgh-145" vertex="1">
          <mxGeometry y="69.26315789473684" width="120" height="113.7894736842105" as="geometry" />
        </mxCell>
        <mxCell id="_kKipss2QhEB_xOAoXgh-149" value="stack" style="rounded=0;whiteSpace=wrap;html=1;" parent="_kKipss2QhEB_xOAoXgh-145" vertex="1">
          <mxGeometry y="183.05263157894734" width="120" height="39.57894736842105" as="geometry" />
        </mxCell>
        <mxCell id="_kKipss2QhEB_xOAoXgh-150" value="guard page" style="rounded=0;whiteSpace=wrap;html=1;" parent="_kKipss2QhEB_xOAoXgh-145" vertex="1">
          <mxGeometry y="222.63157894736838" width="120" height="39.57894736842105" as="geometry" />
        </mxCell>
        <mxCell id="_kKipss2QhEB_xOAoXgh-151" value="data" style="rounded=0;whiteSpace=wrap;html=1;" parent="_kKipss2QhEB_xOAoXgh-145" vertex="1">
          <mxGeometry y="262.2105263157894" width="120" height="39.57894736842105" as="geometry" />
        </mxCell>
        <mxCell id="_kKipss2QhEB_xOAoXgh-152" value="text" style="rounded=0;whiteSpace=wrap;html=1;" parent="_kKipss2QhEB_xOAoXgh-145" vertex="1">
          <mxGeometry y="301.78947368421046" width="120" height="108.84210526315788" as="geometry" />
        </mxCell>
        <mxCell id="_kKipss2QhEB_xOAoXgh-153" style="rounded=0;orthogonalLoop=1;jettySize=auto;html=1;exitX=1;exitY=0.5;exitDx=0;exitDy=0;entryX=0;entryY=1;entryDx=0;entryDy=0;" parent="_kKipss2QhEB_xOAoXgh-144" source="_kKipss2QhEB_xOAoXgh-154" target="_kKipss2QhEB_xOAoXgh-152" edge="1">
          <mxGeometry relative="1" as="geometry" />
        </mxCell>
        <mxCell id="_kKipss2QhEB_xOAoXgh-154" value="&lt;font style=&quot;font-size: 16px;&quot;&gt;0&lt;/font&gt;" style="text;html=1;strokeColor=none;fillColor=none;align=center;verticalAlign=middle;whiteSpace=wrap;rounded=0;" parent="_kKipss2QhEB_xOAoXgh-144" vertex="1">
          <mxGeometry x="40" y="410.6315789473684" width="20" height="29.684210526315788" as="geometry" />
        </mxCell>
        <mxCell id="_kKipss2QhEB_xOAoXgh-155" style="rounded=0;orthogonalLoop=1;jettySize=auto;html=1;exitX=1;exitY=0.5;exitDx=0;exitDy=0;entryX=0;entryY=0;entryDx=0;entryDy=0;" parent="_kKipss2QhEB_xOAoXgh-144" source="_kKipss2QhEB_xOAoXgh-156" target="_kKipss2QhEB_xOAoXgh-146" edge="1">
          <mxGeometry relative="1" as="geometry" />
        </mxCell>
        <mxCell id="_kKipss2QhEB_xOAoXgh-156" value="&lt;font style=&quot;font-size: 16px;&quot;&gt;MAXVA&lt;/font&gt;" style="text;html=1;strokeColor=none;fillColor=none;align=center;verticalAlign=middle;whiteSpace=wrap;rounded=0;" parent="_kKipss2QhEB_xOAoXgh-144" vertex="1">
          <mxGeometry width="60" height="29.684210526315788" as="geometry" />
        </mxCell>
        <mxCell id="_kKipss2QhEB_xOAoXgh-157" value="&lt;b&gt;User Address Space B&lt;/b&gt;" style="text;html=1;strokeColor=none;fillColor=none;align=center;verticalAlign=middle;whiteSpace=wrap;rounded=0;" parent="_kKipss2QhEB_xOAoXgh-144" vertex="1">
          <mxGeometry x="40" y="440.3157894736842" width="140" height="29.684210526315788" as="geometry" />
        </mxCell>
        <mxCell id="_kKipss2QhEB_xOAoXgh-83" value="" style="shape=flexArrow;endArrow=classic;html=1;rounded=0;endWidth=32;endSize=7.385714285714286;width=14.285714285714286;strokeColor=#00CC00;strokeWidth=3;" parent="_kKipss2QhEB_xOAoXgh-144" edge="1">
          <mxGeometry width="50" height="50" relative="1" as="geometry">
            <mxPoint x="50" y="300.28999999999996" as="sourcePoint" />
            <mxPoint x="100" y="300" as="targetPoint" />
          </mxGeometry>
        </mxCell>
        <mxCell id="_kKipss2QhEB_xOAoXgh-84" value="Write" style="edgeLabel;html=1;align=center;verticalAlign=middle;resizable=0;points=[];fontColor=#00CC00;fontStyle=1;fontSize=13;" parent="_kKipss2QhEB_xOAoXgh-83" vertex="1" connectable="0">
          <mxGeometry x="-0.1742" y="1" relative="1" as="geometry">
            <mxPoint x="-16" y="-5" as="offset" />
          </mxGeometry>
        </mxCell>
        <mxCell id="_kKipss2QhEB_xOAoXgh-163" value="" style="endArrow=none;html=1;rounded=0;exitX=1;exitY=0;exitDx=0;exitDy=0;entryX=0;entryY=0;entryDx=0;entryDy=0;strokeColor=#00CC00;" parent="1" source="_kKipss2QhEB_xOAoXgh-151" target="_kKipss2QhEB_xOAoXgh-167" edge="1">
          <mxGeometry width="50" height="50" relative="1" as="geometry">
            <mxPoint x="1960" y="867" as="sourcePoint" />
            <mxPoint x="2280" y="450" as="targetPoint" />
          </mxGeometry>
        </mxCell>
        <mxCell id="_kKipss2QhEB_xOAoXgh-164" value="" style="endArrow=none;html=1;rounded=0;exitX=1;exitY=0;exitDx=0;exitDy=0;entryX=0;entryY=1;entryDx=0;entryDy=0;strokeColor=#00CC00;" parent="1" source="_kKipss2QhEB_xOAoXgh-152" target="_kKipss2QhEB_xOAoXgh-167" edge="1">
          <mxGeometry width="50" height="50" relative="1" as="geometry">
            <mxPoint x="1960" y="927" as="sourcePoint" />
            <mxPoint x="2280" y="530" as="targetPoint" />
          </mxGeometry>
        </mxCell>
        <mxCell id="_kKipss2QhEB_xOAoXgh-167" value="PTE.COW = 0&lt;br style=&quot;border-color: var(--border-color);&quot;&gt;PTE.W = 1" style="rounded=0;whiteSpace=wrap;html=1;fillColor=#d5e8d4;strokeColor=#82b366;" parent="1" vertex="1">
          <mxGeometry x="2675" y="650" width="150" height="50" as="geometry" />
        </mxCell>
        <mxCell id="_kKipss2QhEB_xOAoXgh-169" value="" style="html=1;shadow=0;dashed=0;align=center;verticalAlign=middle;shape=mxgraph.arrows2.uTurnArrow;dy=1.84;arrowHead=10.67;dx2=10.81;rotation=-180;strokeColor=#00CC00;" parent="1" vertex="1">
          <mxGeometry x="2830" y="580" width="30" height="85" as="geometry" />
        </mxCell>
        <mxCell id="_kKipss2QhEB_xOAoXgh-170" value="&lt;font color=&quot;#00cc00&quot;&gt;Copy&lt;/font&gt;" style="rounded=1;whiteSpace=wrap;html=1;strokeColor=#00CC00;" parent="1" vertex="1">
          <mxGeometry x="2850" y="612.5" width="45" height="20" as="geometry" />
        </mxCell>
        <mxCell id="_kKipss2QhEB_xOAoXgh-231" value="" style="group" parent="1" vertex="1" connectable="0">
          <mxGeometry x="-530" y="112.88999999999999" width="220" height="470" as="geometry" />
        </mxCell>
        <mxCell id="_kKipss2QhEB_xOAoXgh-232" value="" style="group" parent="_kKipss2QhEB_xOAoXgh-231" vertex="1" connectable="0">
          <mxGeometry x="100" y="14.842105263157894" width="120" height="410.6315789473684" as="geometry" />
        </mxCell>
        <mxCell id="_kKipss2QhEB_xOAoXgh-233" value="TRAMPOLINE" style="rounded=0;whiteSpace=wrap;html=1;" parent="_kKipss2QhEB_xOAoXgh-232" vertex="1">
          <mxGeometry width="120" height="34.63157894736842" as="geometry" />
        </mxCell>
        <mxCell id="_kKipss2QhEB_xOAoXgh-234" value="TRAPFRAME" style="rounded=0;whiteSpace=wrap;html=1;" parent="_kKipss2QhEB_xOAoXgh-232" vertex="1">
          <mxGeometry y="34.63157894736842" width="120" height="34.63157894736842" as="geometry" />
        </mxCell>
        <mxCell id="_kKipss2QhEB_xOAoXgh-235" value="heap" style="rounded=0;whiteSpace=wrap;html=1;" parent="_kKipss2QhEB_xOAoXgh-232" vertex="1">
          <mxGeometry y="69.26315789473684" width="120" height="113.7894736842105" as="geometry" />
        </mxCell>
        <mxCell id="_kKipss2QhEB_xOAoXgh-236" value="stack" style="rounded=0;whiteSpace=wrap;html=1;" parent="_kKipss2QhEB_xOAoXgh-232" vertex="1">
          <mxGeometry y="183.05263157894734" width="120" height="39.57894736842105" as="geometry" />
        </mxCell>
        <mxCell id="_kKipss2QhEB_xOAoXgh-237" value="guard page" style="rounded=0;whiteSpace=wrap;html=1;" parent="_kKipss2QhEB_xOAoXgh-232" vertex="1">
          <mxGeometry y="222.63157894736838" width="120" height="39.57894736842105" as="geometry" />
        </mxCell>
        <mxCell id="_kKipss2QhEB_xOAoXgh-238" value="data" style="rounded=0;whiteSpace=wrap;html=1;" parent="_kKipss2QhEB_xOAoXgh-232" vertex="1">
          <mxGeometry y="262.2105263157894" width="120" height="39.57894736842105" as="geometry" />
        </mxCell>
        <mxCell id="_kKipss2QhEB_xOAoXgh-239" value="text" style="rounded=0;whiteSpace=wrap;html=1;" parent="_kKipss2QhEB_xOAoXgh-232" vertex="1">
          <mxGeometry y="301.78947368421046" width="120" height="108.84210526315788" as="geometry" />
        </mxCell>
        <mxCell id="_kKipss2QhEB_xOAoXgh-240" style="rounded=0;orthogonalLoop=1;jettySize=auto;html=1;exitX=1;exitY=0.5;exitDx=0;exitDy=0;entryX=0;entryY=1;entryDx=0;entryDy=0;" parent="_kKipss2QhEB_xOAoXgh-231" source="_kKipss2QhEB_xOAoXgh-241" target="_kKipss2QhEB_xOAoXgh-239" edge="1">
          <mxGeometry relative="1" as="geometry" />
        </mxCell>
        <mxCell id="_kKipss2QhEB_xOAoXgh-241" value="&lt;font style=&quot;font-size: 16px;&quot;&gt;0&lt;/font&gt;" style="text;html=1;strokeColor=none;fillColor=none;align=center;verticalAlign=middle;whiteSpace=wrap;rounded=0;" parent="_kKipss2QhEB_xOAoXgh-231" vertex="1">
          <mxGeometry x="40" y="410.6315789473684" width="20" height="29.684210526315788" as="geometry" />
        </mxCell>
        <mxCell id="_kKipss2QhEB_xOAoXgh-242" style="rounded=0;orthogonalLoop=1;jettySize=auto;html=1;exitX=1;exitY=0.5;exitDx=0;exitDy=0;entryX=0;entryY=0;entryDx=0;entryDy=0;" parent="_kKipss2QhEB_xOAoXgh-231" source="_kKipss2QhEB_xOAoXgh-243" target="_kKipss2QhEB_xOAoXgh-233" edge="1">
          <mxGeometry relative="1" as="geometry" />
        </mxCell>
        <mxCell id="_kKipss2QhEB_xOAoXgh-243" value="&lt;font style=&quot;font-size: 16px;&quot;&gt;MAXVA&lt;/font&gt;" style="text;html=1;strokeColor=none;fillColor=none;align=center;verticalAlign=middle;whiteSpace=wrap;rounded=0;" parent="_kKipss2QhEB_xOAoXgh-231" vertex="1">
          <mxGeometry width="60" height="29.684210526315788" as="geometry" />
        </mxCell>
        <mxCell id="_kKipss2QhEB_xOAoXgh-244" value="&lt;b&gt;User Address Space A&lt;/b&gt;" style="text;html=1;strokeColor=none;fillColor=none;align=center;verticalAlign=middle;whiteSpace=wrap;rounded=0;" parent="_kKipss2QhEB_xOAoXgh-231" vertex="1">
          <mxGeometry x="40" y="440.3157894736842" width="140" height="29.684210526315788" as="geometry" />
        </mxCell>
        <mxCell id="_kKipss2QhEB_xOAoXgh-246" value="" style="rounded=0;whiteSpace=wrap;html=1;fillColor=#f5f5f5;fontColor=#333333;strokeColor=#666666;" parent="1" vertex="1">
          <mxGeometry x="-188" y="135" width="150" height="470" as="geometry" />
        </mxCell>
        <mxCell id="_kKipss2QhEB_xOAoXgh-247" value="&lt;b&gt;Physical Memory&lt;/b&gt;" style="text;html=1;strokeColor=none;fillColor=none;align=center;verticalAlign=middle;whiteSpace=wrap;rounded=0;" parent="1" vertex="1">
          <mxGeometry x="-183" y="94.99578947368417" width="140" height="29.684210526315788" as="geometry" />
        </mxCell>
        <mxCell id="_kKipss2QhEB_xOAoXgh-250" value="PTE.COW = 0&lt;br style=&quot;border-color: var(--border-color);&quot;&gt;PTE.W = 1" style="rounded=0;whiteSpace=wrap;html=1;" parent="1" vertex="1">
          <mxGeometry x="-188" y="385" width="150" height="55" as="geometry" />
        </mxCell>
        <mxCell id="_kKipss2QhEB_xOAoXgh-256" value="" style="endArrow=none;html=1;rounded=0;exitX=1;exitY=0;exitDx=0;exitDy=0;entryX=0;entryY=0;entryDx=0;entryDy=0;strokeColor=#0000FF;" parent="1" source="_kKipss2QhEB_xOAoXgh-238" target="_kKipss2QhEB_xOAoXgh-250" edge="1">
          <mxGeometry width="50" height="50" relative="1" as="geometry">
            <mxPoint x="-250" y="445" as="sourcePoint" />
            <mxPoint x="-200" y="395" as="targetPoint" />
          </mxGeometry>
        </mxCell>
        <mxCell id="NhgTdZ-Xcg6zzgM0xqMc-9" value="&lt;font color=&quot;#0000ff&quot;&gt;PTE.COW = 0&lt;br style=&quot;border-color: var(--border-color);&quot;&gt;PTE.W = 1&lt;/font&gt;" style="edgeLabel;html=1;align=center;verticalAlign=middle;resizable=0;points=[];" parent="_kKipss2QhEB_xOAoXgh-256" vertex="1" connectable="0">
          <mxGeometry x="-0.0699" y="-2" relative="1" as="geometry">
            <mxPoint x="9" y="6" as="offset" />
          </mxGeometry>
        </mxCell>
        <mxCell id="_kKipss2QhEB_xOAoXgh-257" value="" style="endArrow=none;html=1;rounded=0;exitX=1;exitY=0;exitDx=0;exitDy=0;entryX=0;entryY=1;entryDx=0;entryDy=0;strokeColor=#0000FF;" parent="1" source="_kKipss2QhEB_xOAoXgh-239" target="_kKipss2QhEB_xOAoXgh-250" edge="1">
          <mxGeometry width="50" height="50" relative="1" as="geometry">
            <mxPoint x="-300" y="415" as="sourcePoint" />
            <mxPoint x="-250" y="365" as="targetPoint" />
          </mxGeometry>
        </mxCell>
        <mxCell id="_kKipss2QhEB_xOAoXgh-268" value="Use reserved bit in PTE for COW" style="shape=callout;whiteSpace=wrap;html=1;perimeter=calloutPerimeter;size=28;position=0.17;position2=0;" parent="1" vertex="1">
          <mxGeometry x="-284" y="5" width="121" height="116" as="geometry" />
        </mxCell>
        <mxCell id="NhgTdZ-Xcg6zzgM0xqMc-13" value="PTE.COW = 0&lt;br style=&quot;border-color: var(--border-color);&quot;&gt;PTE.W = 1" style="rounded=0;whiteSpace=wrap;html=1;fillColor=#dae8fc;strokeColor=#6c8ebf;" parent="1" vertex="1">
          <mxGeometry x="2675" y="430" width="150" height="52.5" as="geometry" />
        </mxCell>
        <mxCell id="NhgTdZ-Xcg6zzgM0xqMc-16" value="" style="html=1;shadow=0;dashed=0;align=center;verticalAlign=middle;shape=mxgraph.arrows2.uTurnArrow;dy=1.84;arrowHead=10.67;dx2=10.81;rotation=-180;strokeColor=#0000FF;flipV=1;" parent="1" vertex="1">
          <mxGeometry x="2850" y="465" width="10" height="85" as="geometry" />
        </mxCell>
        <mxCell id="NhgTdZ-Xcg6zzgM0xqMc-17" value="&lt;font color=&quot;#0000ff&quot;&gt;Copy&lt;/font&gt;" style="rounded=1;whiteSpace=wrap;html=1;strokeColor=#0000FF;" parent="1" vertex="1">
          <mxGeometry x="2850" y="492.5" width="45" height="20" as="geometry" />
        </mxCell>
        <mxCell id="NhgTdZ-Xcg6zzgM0xqMc-24" value="" style="group" parent="1" vertex="1" connectable="0">
          <mxGeometry x="700" y="-240" width="220" height="470" as="geometry" />
        </mxCell>
        <mxCell id="NhgTdZ-Xcg6zzgM0xqMc-25" value="" style="group" parent="NhgTdZ-Xcg6zzgM0xqMc-24" vertex="1" connectable="0">
          <mxGeometry x="100" y="14.842105263157894" width="120" height="410.6315789473684" as="geometry" />
        </mxCell>
        <mxCell id="NhgTdZ-Xcg6zzgM0xqMc-26" value="TRAMPOLINE" style="rounded=0;whiteSpace=wrap;html=1;" parent="NhgTdZ-Xcg6zzgM0xqMc-25" vertex="1">
          <mxGeometry width="120" height="34.63157894736842" as="geometry" />
        </mxCell>
        <mxCell id="NhgTdZ-Xcg6zzgM0xqMc-27" value="TRAPFRAME" style="rounded=0;whiteSpace=wrap;html=1;" parent="NhgTdZ-Xcg6zzgM0xqMc-25" vertex="1">
          <mxGeometry y="34.63157894736842" width="120" height="34.63157894736842" as="geometry" />
        </mxCell>
        <mxCell id="NhgTdZ-Xcg6zzgM0xqMc-28" value="heap" style="rounded=0;whiteSpace=wrap;html=1;" parent="NhgTdZ-Xcg6zzgM0xqMc-25" vertex="1">
          <mxGeometry y="69.26315789473684" width="120" height="113.7894736842105" as="geometry" />
        </mxCell>
        <mxCell id="NhgTdZ-Xcg6zzgM0xqMc-29" value="stack" style="rounded=0;whiteSpace=wrap;html=1;" parent="NhgTdZ-Xcg6zzgM0xqMc-25" vertex="1">
          <mxGeometry y="183.05263157894734" width="120" height="39.57894736842105" as="geometry" />
        </mxCell>
        <mxCell id="NhgTdZ-Xcg6zzgM0xqMc-30" value="guard page" style="rounded=0;whiteSpace=wrap;html=1;" parent="NhgTdZ-Xcg6zzgM0xqMc-25" vertex="1">
          <mxGeometry y="222.63157894736838" width="120" height="39.57894736842105" as="geometry" />
        </mxCell>
        <mxCell id="NhgTdZ-Xcg6zzgM0xqMc-31" value="data" style="rounded=0;whiteSpace=wrap;html=1;" parent="NhgTdZ-Xcg6zzgM0xqMc-25" vertex="1">
          <mxGeometry y="262.2105263157894" width="120" height="39.57894736842105" as="geometry" />
        </mxCell>
        <mxCell id="NhgTdZ-Xcg6zzgM0xqMc-32" value="text" style="rounded=0;whiteSpace=wrap;html=1;" parent="NhgTdZ-Xcg6zzgM0xqMc-25" vertex="1">
          <mxGeometry y="301.78947368421046" width="120" height="108.84210526315788" as="geometry" />
        </mxCell>
        <mxCell id="NhgTdZ-Xcg6zzgM0xqMc-33" style="rounded=0;orthogonalLoop=1;jettySize=auto;html=1;exitX=1;exitY=0.5;exitDx=0;exitDy=0;entryX=0;entryY=1;entryDx=0;entryDy=0;" parent="NhgTdZ-Xcg6zzgM0xqMc-24" source="NhgTdZ-Xcg6zzgM0xqMc-34" target="NhgTdZ-Xcg6zzgM0xqMc-32" edge="1">
          <mxGeometry relative="1" as="geometry" />
        </mxCell>
        <mxCell id="NhgTdZ-Xcg6zzgM0xqMc-34" value="&lt;font style=&quot;font-size: 16px;&quot;&gt;0&lt;/font&gt;" style="text;html=1;strokeColor=none;fillColor=none;align=center;verticalAlign=middle;whiteSpace=wrap;rounded=0;" parent="NhgTdZ-Xcg6zzgM0xqMc-24" vertex="1">
          <mxGeometry x="40" y="410.6315789473684" width="20" height="29.684210526315788" as="geometry" />
        </mxCell>
        <mxCell id="NhgTdZ-Xcg6zzgM0xqMc-35" style="rounded=0;orthogonalLoop=1;jettySize=auto;html=1;exitX=1;exitY=0.5;exitDx=0;exitDy=0;entryX=0;entryY=0;entryDx=0;entryDy=0;" parent="NhgTdZ-Xcg6zzgM0xqMc-24" source="NhgTdZ-Xcg6zzgM0xqMc-36" target="NhgTdZ-Xcg6zzgM0xqMc-26" edge="1">
          <mxGeometry relative="1" as="geometry" />
        </mxCell>
        <mxCell id="NhgTdZ-Xcg6zzgM0xqMc-36" value="&lt;font style=&quot;font-size: 16px;&quot;&gt;MAXVA&lt;/font&gt;" style="text;html=1;strokeColor=none;fillColor=none;align=center;verticalAlign=middle;whiteSpace=wrap;rounded=0;" parent="NhgTdZ-Xcg6zzgM0xqMc-24" vertex="1">
          <mxGeometry width="60" height="29.684210526315788" as="geometry" />
        </mxCell>
        <mxCell id="NhgTdZ-Xcg6zzgM0xqMc-37" value="&lt;b&gt;User Address Space A&lt;/b&gt;" style="text;html=1;strokeColor=none;fillColor=none;align=center;verticalAlign=middle;whiteSpace=wrap;rounded=0;" parent="NhgTdZ-Xcg6zzgM0xqMc-24" vertex="1">
          <mxGeometry x="40" y="440.3157894736842" width="140" height="29.684210526315788" as="geometry" />
        </mxCell>
        <mxCell id="NhgTdZ-Xcg6zzgM0xqMc-38" value="" style="ellipse;whiteSpace=wrap;html=1;aspect=fixed;" parent="NhgTdZ-Xcg6zzgM0xqMc-24" vertex="1">
          <mxGeometry x="40" y="215" width="40" height="40" as="geometry" />
        </mxCell>
        <mxCell id="NhgTdZ-Xcg6zzgM0xqMc-39" style="rounded=0;orthogonalLoop=1;jettySize=auto;html=1;exitX=1;exitY=0;exitDx=0;exitDy=0;entryX=0;entryY=1;entryDx=0;entryDy=0;endArrow=none;endFill=0;" parent="1" source="NhgTdZ-Xcg6zzgM0xqMc-32" target="_kKipss2QhEB_xOAoXgh-36" edge="1">
          <mxGeometry relative="1" as="geometry" />
        </mxCell>
        <mxCell id="NhgTdZ-Xcg6zzgM0xqMc-40" style="rounded=0;orthogonalLoop=1;jettySize=auto;html=1;exitX=1;exitY=1;exitDx=0;exitDy=0;entryX=0;entryY=0;entryDx=0;entryDy=0;endArrow=none;endFill=0;" parent="1" source="NhgTdZ-Xcg6zzgM0xqMc-30" target="_kKipss2QhEB_xOAoXgh-36" edge="1">
          <mxGeometry relative="1" as="geometry" />
        </mxCell>
        <mxCell id="NhgTdZ-Xcg6zzgM0xqMc-41" value="PTE.COW =&amp;nbsp;&amp;nbsp;0→&lt;font style=&quot;border-color: var(--border-color); font-size: 12px;&quot; color=&quot;#ff0000&quot;&gt;1&lt;/font&gt;&lt;br style=&quot;border-color: var(--border-color); font-size: 12px;&quot;&gt;PTE.W = 1→&lt;font style=&quot;border-color: var(--border-color); font-size: 12px;&quot; color=&quot;#ff0000&quot;&gt;0&lt;/font&gt;" style="edgeLabel;html=1;align=center;verticalAlign=middle;resizable=0;points=[];" parent="NhgTdZ-Xcg6zzgM0xqMc-40" vertex="1" connectable="0">
          <mxGeometry x="0.1644" y="6" relative="1" as="geometry">
            <mxPoint as="offset" />
          </mxGeometry>
        </mxCell>
        <mxCell id="NhgTdZ-Xcg6zzgM0xqMc-42" style="edgeStyle=orthogonalEdgeStyle;rounded=0;orthogonalLoop=1;jettySize=auto;html=1;entryX=0;entryY=0.5;entryDx=0;entryDy=0;curved=1;exitX=0.5;exitY=0;exitDx=0;exitDy=0;" parent="1" source="NhgTdZ-Xcg6zzgM0xqMc-63" target="NhgTdZ-Xcg6zzgM0xqMc-38" edge="1">
          <mxGeometry relative="1" as="geometry">
            <mxPoint x="700" y="30" as="sourcePoint" />
          </mxGeometry>
        </mxCell>
        <mxCell id="NhgTdZ-Xcg6zzgM0xqMc-43" value="&lt;font style=&quot;font-size: 15px;&quot;&gt;Fork&lt;/font&gt;" style="edgeLabel;html=1;align=center;verticalAlign=middle;resizable=0;points=[];" parent="NhgTdZ-Xcg6zzgM0xqMc-42" vertex="1" connectable="0">
          <mxGeometry x="0.253" y="-5" relative="1" as="geometry">
            <mxPoint x="-4" y="-5" as="offset" />
          </mxGeometry>
        </mxCell>
        <mxCell id="NhgTdZ-Xcg6zzgM0xqMc-45" value="" style="group" parent="1" vertex="1" connectable="0">
          <mxGeometry x="2020" y="-240" width="220" height="470" as="geometry" />
        </mxCell>
        <mxCell id="NhgTdZ-Xcg6zzgM0xqMc-46" value="" style="group" parent="NhgTdZ-Xcg6zzgM0xqMc-45" vertex="1" connectable="0">
          <mxGeometry x="100" y="14.842105263157894" width="120" height="410.6315789473684" as="geometry" />
        </mxCell>
        <mxCell id="NhgTdZ-Xcg6zzgM0xqMc-47" value="TRAMPOLINE" style="rounded=0;whiteSpace=wrap;html=1;" parent="NhgTdZ-Xcg6zzgM0xqMc-46" vertex="1">
          <mxGeometry width="120" height="34.63157894736842" as="geometry" />
        </mxCell>
        <mxCell id="NhgTdZ-Xcg6zzgM0xqMc-48" value="TRAPFRAME" style="rounded=0;whiteSpace=wrap;html=1;" parent="NhgTdZ-Xcg6zzgM0xqMc-46" vertex="1">
          <mxGeometry y="34.63157894736842" width="120" height="34.63157894736842" as="geometry" />
        </mxCell>
        <mxCell id="NhgTdZ-Xcg6zzgM0xqMc-49" value="heap" style="rounded=0;whiteSpace=wrap;html=1;" parent="NhgTdZ-Xcg6zzgM0xqMc-46" vertex="1">
          <mxGeometry y="69.26315789473684" width="120" height="113.7894736842105" as="geometry" />
        </mxCell>
        <mxCell id="NhgTdZ-Xcg6zzgM0xqMc-50" value="stack" style="rounded=0;whiteSpace=wrap;html=1;" parent="NhgTdZ-Xcg6zzgM0xqMc-46" vertex="1">
          <mxGeometry y="183.05263157894734" width="120" height="39.57894736842105" as="geometry" />
        </mxCell>
        <mxCell id="NhgTdZ-Xcg6zzgM0xqMc-51" value="guard page" style="rounded=0;whiteSpace=wrap;html=1;" parent="NhgTdZ-Xcg6zzgM0xqMc-46" vertex="1">
          <mxGeometry y="222.63157894736838" width="120" height="39.57894736842105" as="geometry" />
        </mxCell>
        <mxCell id="NhgTdZ-Xcg6zzgM0xqMc-52" value="data" style="rounded=0;whiteSpace=wrap;html=1;" parent="NhgTdZ-Xcg6zzgM0xqMc-46" vertex="1">
          <mxGeometry y="262.2105263157894" width="120" height="39.57894736842105" as="geometry" />
        </mxCell>
        <mxCell id="NhgTdZ-Xcg6zzgM0xqMc-53" value="text" style="rounded=0;whiteSpace=wrap;html=1;" parent="NhgTdZ-Xcg6zzgM0xqMc-46" vertex="1">
          <mxGeometry y="301.78947368421046" width="120" height="108.84210526315788" as="geometry" />
        </mxCell>
        <mxCell id="NhgTdZ-Xcg6zzgM0xqMc-54" style="rounded=0;orthogonalLoop=1;jettySize=auto;html=1;exitX=1;exitY=0.5;exitDx=0;exitDy=0;entryX=0;entryY=1;entryDx=0;entryDy=0;" parent="NhgTdZ-Xcg6zzgM0xqMc-45" source="NhgTdZ-Xcg6zzgM0xqMc-55" target="NhgTdZ-Xcg6zzgM0xqMc-53" edge="1">
          <mxGeometry relative="1" as="geometry" />
        </mxCell>
        <mxCell id="NhgTdZ-Xcg6zzgM0xqMc-55" value="&lt;font style=&quot;font-size: 16px;&quot;&gt;0&lt;/font&gt;" style="text;html=1;strokeColor=none;fillColor=none;align=center;verticalAlign=middle;whiteSpace=wrap;rounded=0;" parent="NhgTdZ-Xcg6zzgM0xqMc-45" vertex="1">
          <mxGeometry x="40" y="410.6315789473684" width="20" height="29.684210526315788" as="geometry" />
        </mxCell>
        <mxCell id="NhgTdZ-Xcg6zzgM0xqMc-56" style="rounded=0;orthogonalLoop=1;jettySize=auto;html=1;exitX=1;exitY=0.5;exitDx=0;exitDy=0;entryX=0;entryY=0;entryDx=0;entryDy=0;" parent="NhgTdZ-Xcg6zzgM0xqMc-45" source="NhgTdZ-Xcg6zzgM0xqMc-57" target="NhgTdZ-Xcg6zzgM0xqMc-47" edge="1">
          <mxGeometry relative="1" as="geometry" />
        </mxCell>
        <mxCell id="NhgTdZ-Xcg6zzgM0xqMc-57" value="&lt;font style=&quot;font-size: 16px;&quot;&gt;MAXVA&lt;/font&gt;" style="text;html=1;strokeColor=none;fillColor=none;align=center;verticalAlign=middle;whiteSpace=wrap;rounded=0;" parent="NhgTdZ-Xcg6zzgM0xqMc-45" vertex="1">
          <mxGeometry width="60" height="29.684210526315788" as="geometry" />
        </mxCell>
        <mxCell id="NhgTdZ-Xcg6zzgM0xqMc-58" value="&lt;b&gt;User Address Space A&lt;/b&gt;" style="text;html=1;strokeColor=none;fillColor=none;align=center;verticalAlign=middle;whiteSpace=wrap;rounded=0;" parent="NhgTdZ-Xcg6zzgM0xqMc-45" vertex="1">
          <mxGeometry x="40" y="440.3157894736842" width="140" height="29.684210526315788" as="geometry" />
        </mxCell>
        <mxCell id="NhgTdZ-Xcg6zzgM0xqMc-60" style="rounded=0;orthogonalLoop=1;jettySize=auto;html=1;exitX=1;exitY=0;exitDx=0;exitDy=0;entryX=0;entryY=0;entryDx=0;entryDy=0;endArrow=none;endFill=0;" parent="1" source="NhgTdZ-Xcg6zzgM0xqMc-52" target="_kKipss2QhEB_xOAoXgh-134" edge="1">
          <mxGeometry relative="1" as="geometry" />
        </mxCell>
        <mxCell id="NhgTdZ-Xcg6zzgM0xqMc-61" style="rounded=0;orthogonalLoop=1;jettySize=auto;html=1;exitX=1;exitY=0;exitDx=0;exitDy=0;entryX=0;entryY=1;entryDx=0;entryDy=0;endArrow=none;endFill=0;" parent="1" source="NhgTdZ-Xcg6zzgM0xqMc-53" target="_kKipss2QhEB_xOAoXgh-134" edge="1">
          <mxGeometry relative="1" as="geometry" />
        </mxCell>
        <mxCell id="NhgTdZ-Xcg6zzgM0xqMc-63" value="" style="ellipse;whiteSpace=wrap;html=1;aspect=fixed;" parent="1" vertex="1">
          <mxGeometry x="570" y="20" width="40" height="40" as="geometry" />
        </mxCell>
        <mxCell id="NhgTdZ-Xcg6zzgM0xqMc-66" value="RefCnt&lt;br&gt;3" style="ellipse;whiteSpace=wrap;html=1;aspect=fixed;fillColor=#f8cecc;strokeColor=#b85450;" parent="1" vertex="1">
          <mxGeometry x="1390" y="457.5" width="55" height="55" as="geometry" />
        </mxCell>
        <mxCell id="NhgTdZ-Xcg6zzgM0xqMc-68" value="RefCnt&lt;br&gt;1" style="ellipse;whiteSpace=wrap;html=1;aspect=fixed;fillColor=#f8cecc;strokeColor=#b85450;" parent="1" vertex="1">
          <mxGeometry x="2775" y="500" width="45" height="45" as="geometry" />
        </mxCell>
        <mxCell id="NhgTdZ-Xcg6zzgM0xqMc-69" value="RefCnt&lt;br&gt;1" style="ellipse;whiteSpace=wrap;html=1;aspect=fixed;fillColor=#f8cecc;strokeColor=#b85450;" parent="1" vertex="1">
          <mxGeometry x="2775" y="390" width="45" height="45" as="geometry" />
        </mxCell>
        <mxCell id="NhgTdZ-Xcg6zzgM0xqMc-70" value="RefCnt&lt;br&gt;1" style="ellipse;whiteSpace=wrap;html=1;aspect=fixed;fillColor=#f8cecc;strokeColor=#b85450;" parent="1" vertex="1">
          <mxGeometry x="2775" y="612.5" width="45" height="45" as="geometry" />
        </mxCell>
        <mxCell id="NhgTdZ-Xcg6zzgM0xqMc-75" value="RefCnt&lt;br&gt;1" style="ellipse;whiteSpace=wrap;html=1;aspect=fixed;fillColor=#f8cecc;strokeColor=#b85450;" parent="1" vertex="1">
          <mxGeometry x="-93" y="342.5" width="55" height="55" as="geometry" />
        </mxCell>
        <mxCell id="NhgTdZ-Xcg6zzgM0xqMc-85" value="" style="group;fontSize=24;" parent="1" vertex="1" connectable="0">
          <mxGeometry x="200" y="1349.86" width="200" height="100" as="geometry" />
        </mxCell>
        <mxCell id="NhgTdZ-Xcg6zzgM0xqMc-82" value="A" style="rounded=1;whiteSpace=wrap;html=1;arcSize=8;fontSize=24;" parent="NhgTdZ-Xcg6zzgM0xqMc-85" vertex="1">
          <mxGeometry width="200" height="100" as="geometry" />
        </mxCell>
        <mxCell id="NhgTdZ-Xcg6zzgM0xqMc-83" value="" style="rounded=1;whiteSpace=wrap;html=1;fontSize=24;" parent="NhgTdZ-Xcg6zzgM0xqMc-85" vertex="1">
          <mxGeometry width="70" height="30" as="geometry" />
        </mxCell>
        <mxCell id="NhgTdZ-Xcg6zzgM0xqMc-84" value="" style="ellipse;whiteSpace=wrap;html=1;aspect=fixed;fillColor=#000000;fontSize=24;" parent="NhgTdZ-Xcg6zzgM0xqMc-85" vertex="1">
          <mxGeometry x="25" y="5" width="20" height="20" as="geometry" />
        </mxCell>
        <mxCell id="NhgTdZ-Xcg6zzgM0xqMc-86" value="" style="group;fontSize=24;" parent="1" vertex="1" connectable="0">
          <mxGeometry x="400" y="1349.86" width="200" height="100" as="geometry" />
        </mxCell>
        <mxCell id="NhgTdZ-Xcg6zzgM0xqMc-87" value="B" style="rounded=1;whiteSpace=wrap;html=1;arcSize=8;fontSize=24;" parent="NhgTdZ-Xcg6zzgM0xqMc-86" vertex="1">
          <mxGeometry width="200" height="100" as="geometry" />
        </mxCell>
        <mxCell id="NhgTdZ-Xcg6zzgM0xqMc-88" value="" style="rounded=1;whiteSpace=wrap;html=1;fontSize=24;" parent="NhgTdZ-Xcg6zzgM0xqMc-86" vertex="1">
          <mxGeometry width="70" height="30" as="geometry" />
        </mxCell>
        <mxCell id="NhgTdZ-Xcg6zzgM0xqMc-89" value="" style="ellipse;whiteSpace=wrap;html=1;aspect=fixed;fillColor=#000000;fontSize=24;" parent="NhgTdZ-Xcg6zzgM0xqMc-86" vertex="1">
          <mxGeometry x="25" y="5" width="20" height="20" as="geometry" />
        </mxCell>
        <mxCell id="NhgTdZ-Xcg6zzgM0xqMc-90" value="" style="group;fontSize=24;" parent="1" vertex="1" connectable="0">
          <mxGeometry x="600" y="1349.86" width="200" height="100" as="geometry" />
        </mxCell>
        <mxCell id="NhgTdZ-Xcg6zzgM0xqMc-91" value="C" style="rounded=1;whiteSpace=wrap;html=1;arcSize=8;fontSize=24;" parent="NhgTdZ-Xcg6zzgM0xqMc-90" vertex="1">
          <mxGeometry width="200" height="100" as="geometry" />
        </mxCell>
        <mxCell id="NhgTdZ-Xcg6zzgM0xqMc-92" value="" style="rounded=1;whiteSpace=wrap;html=1;fontSize=24;" parent="NhgTdZ-Xcg6zzgM0xqMc-90" vertex="1">
          <mxGeometry width="70" height="30" as="geometry" />
        </mxCell>
        <mxCell id="NhgTdZ-Xcg6zzgM0xqMc-93" value="" style="ellipse;whiteSpace=wrap;html=1;aspect=fixed;fillColor=#000000;fontSize=24;" parent="NhgTdZ-Xcg6zzgM0xqMc-90" vertex="1">
          <mxGeometry x="25" y="5" width="20" height="20" as="geometry" />
        </mxCell>
        <mxCell id="NhgTdZ-Xcg6zzgM0xqMc-94" value="" style="group;fontSize=24;" parent="1" vertex="1" connectable="0">
          <mxGeometry x="800" y="1349.86" width="200" height="100" as="geometry" />
        </mxCell>
        <mxCell id="NhgTdZ-Xcg6zzgM0xqMc-95" value="D" style="rounded=1;whiteSpace=wrap;html=1;arcSize=8;fontSize=24;" parent="NhgTdZ-Xcg6zzgM0xqMc-94" vertex="1">
          <mxGeometry width="200" height="100" as="geometry" />
        </mxCell>
        <mxCell id="NhgTdZ-Xcg6zzgM0xqMc-96" value="" style="rounded=1;whiteSpace=wrap;html=1;fontSize=24;" parent="NhgTdZ-Xcg6zzgM0xqMc-94" vertex="1">
          <mxGeometry width="70" height="30" as="geometry" />
        </mxCell>
        <mxCell id="NhgTdZ-Xcg6zzgM0xqMc-97" value="" style="ellipse;whiteSpace=wrap;html=1;aspect=fixed;fillColor=#000000;fontSize=24;" parent="NhgTdZ-Xcg6zzgM0xqMc-94" vertex="1">
          <mxGeometry x="25" y="5" width="20" height="20" as="geometry" />
        </mxCell>
        <mxCell id="NhgTdZ-Xcg6zzgM0xqMc-99" style="edgeStyle=orthogonalEdgeStyle;rounded=0;orthogonalLoop=1;jettySize=auto;html=1;entryX=0;entryY=0.5;entryDx=0;entryDy=0;" parent="1" source="NhgTdZ-Xcg6zzgM0xqMc-98" target="NhgTdZ-Xcg6zzgM0xqMc-83" edge="1">
          <mxGeometry relative="1" as="geometry" />
        </mxCell>
        <mxCell id="NhgTdZ-Xcg6zzgM0xqMc-98" value="&lt;span style=&quot;font-size: 36px;&quot;&gt;kmem.freelist&lt;/span&gt;" style="text;html=1;align=center;verticalAlign=middle;whiteSpace=wrap;rounded=0;" parent="1" vertex="1">
          <mxGeometry x="-180" y="1344.86" width="250" height="40" as="geometry" />
        </mxCell>
        <mxCell id="NhgTdZ-Xcg6zzgM0xqMc-101" style="edgeStyle=orthogonalEdgeStyle;rounded=0;orthogonalLoop=1;jettySize=auto;html=1;exitX=0.5;exitY=0;exitDx=0;exitDy=0;entryX=0.25;entryY=0;entryDx=0;entryDy=0;fontSize=24;" parent="1" source="NhgTdZ-Xcg6zzgM0xqMc-84" target="NhgTdZ-Xcg6zzgM0xqMc-88" edge="1">
          <mxGeometry relative="1" as="geometry" />
        </mxCell>
        <mxCell id="NhgTdZ-Xcg6zzgM0xqMc-102" style="edgeStyle=orthogonalEdgeStyle;rounded=0;orthogonalLoop=1;jettySize=auto;html=1;exitX=0.5;exitY=0;exitDx=0;exitDy=0;entryX=0.25;entryY=0;entryDx=0;entryDy=0;fontSize=24;" parent="1" source="NhgTdZ-Xcg6zzgM0xqMc-89" target="NhgTdZ-Xcg6zzgM0xqMc-92" edge="1">
          <mxGeometry relative="1" as="geometry" />
        </mxCell>
        <mxCell id="NhgTdZ-Xcg6zzgM0xqMc-103" style="edgeStyle=orthogonalEdgeStyle;rounded=0;orthogonalLoop=1;jettySize=auto;html=1;exitX=0.5;exitY=0;exitDx=0;exitDy=0;entryX=0.25;entryY=0;entryDx=0;entryDy=0;fontSize=24;" parent="1" source="NhgTdZ-Xcg6zzgM0xqMc-93" target="NhgTdZ-Xcg6zzgM0xqMc-96" edge="1">
          <mxGeometry relative="1" as="geometry" />
        </mxCell>
        <mxCell id="NhgTdZ-Xcg6zzgM0xqMc-105" value="&lt;span style=&quot;font-size: 36px;&quot;&gt;NULL&lt;/span&gt;" style="text;html=1;align=center;verticalAlign=middle;whiteSpace=wrap;rounded=0;" parent="1" vertex="1">
          <mxGeometry x="1030" y="1344.86" width="140" height="40" as="geometry" />
        </mxCell>
        <mxCell id="NhgTdZ-Xcg6zzgM0xqMc-107" style="edgeStyle=orthogonalEdgeStyle;rounded=0;orthogonalLoop=1;jettySize=auto;html=1;exitX=1;exitY=0.5;exitDx=0;exitDy=0;" parent="1" source="NhgTdZ-Xcg6zzgM0xqMc-97" target="NhgTdZ-Xcg6zzgM0xqMc-105" edge="1">
          <mxGeometry relative="1" as="geometry" />
        </mxCell>
        <mxCell id="NhgTdZ-Xcg6zzgM0xqMc-119" value="" style="group;fontSize=24;" parent="1" vertex="1" connectable="0">
          <mxGeometry x="400" y="1539.86" width="200" height="100" as="geometry" />
        </mxCell>
        <mxCell id="NhgTdZ-Xcg6zzgM0xqMc-120" value="B" style="rounded=1;whiteSpace=wrap;html=1;arcSize=8;fontSize=24;" parent="NhgTdZ-Xcg6zzgM0xqMc-119" vertex="1">
          <mxGeometry width="200" height="100" as="geometry" />
        </mxCell>
        <mxCell id="NhgTdZ-Xcg6zzgM0xqMc-121" value="" style="rounded=1;whiteSpace=wrap;html=1;fontSize=24;" parent="NhgTdZ-Xcg6zzgM0xqMc-119" vertex="1">
          <mxGeometry width="70" height="30" as="geometry" />
        </mxCell>
        <mxCell id="NhgTdZ-Xcg6zzgM0xqMc-122" value="" style="ellipse;whiteSpace=wrap;html=1;aspect=fixed;fillColor=#000000;fontSize=24;" parent="NhgTdZ-Xcg6zzgM0xqMc-119" vertex="1">
          <mxGeometry x="25" y="5" width="20" height="20" as="geometry" />
        </mxCell>
        <mxCell id="NhgTdZ-Xcg6zzgM0xqMc-123" value="" style="group;fontSize=24;" parent="1" vertex="1" connectable="0">
          <mxGeometry x="600" y="1539.86" width="200" height="100" as="geometry" />
        </mxCell>
        <mxCell id="NhgTdZ-Xcg6zzgM0xqMc-124" value="C" style="rounded=1;whiteSpace=wrap;html=1;arcSize=8;fontSize=24;" parent="NhgTdZ-Xcg6zzgM0xqMc-123" vertex="1">
          <mxGeometry width="200" height="100" as="geometry" />
        </mxCell>
        <mxCell id="NhgTdZ-Xcg6zzgM0xqMc-125" value="" style="rounded=1;whiteSpace=wrap;html=1;fontSize=24;" parent="NhgTdZ-Xcg6zzgM0xqMc-123" vertex="1">
          <mxGeometry width="70" height="30" as="geometry" />
        </mxCell>
        <mxCell id="NhgTdZ-Xcg6zzgM0xqMc-126" value="" style="ellipse;whiteSpace=wrap;html=1;aspect=fixed;fillColor=#000000;fontSize=24;" parent="NhgTdZ-Xcg6zzgM0xqMc-123" vertex="1">
          <mxGeometry x="25" y="5" width="20" height="20" as="geometry" />
        </mxCell>
        <mxCell id="NhgTdZ-Xcg6zzgM0xqMc-127" value="" style="group;fontSize=24;" parent="1" vertex="1" connectable="0">
          <mxGeometry x="800" y="1539.86" width="200" height="100" as="geometry" />
        </mxCell>
        <mxCell id="NhgTdZ-Xcg6zzgM0xqMc-128" value="D" style="rounded=1;whiteSpace=wrap;html=1;arcSize=8;fontSize=24;" parent="NhgTdZ-Xcg6zzgM0xqMc-127" vertex="1">
          <mxGeometry width="200" height="100" as="geometry" />
        </mxCell>
        <mxCell id="NhgTdZ-Xcg6zzgM0xqMc-129" value="" style="rounded=1;whiteSpace=wrap;html=1;fontSize=24;" parent="NhgTdZ-Xcg6zzgM0xqMc-127" vertex="1">
          <mxGeometry width="70" height="30" as="geometry" />
        </mxCell>
        <mxCell id="NhgTdZ-Xcg6zzgM0xqMc-130" value="" style="ellipse;whiteSpace=wrap;html=1;aspect=fixed;fillColor=#000000;fontSize=24;" parent="NhgTdZ-Xcg6zzgM0xqMc-127" vertex="1">
          <mxGeometry x="25" y="5" width="20" height="20" as="geometry" />
        </mxCell>
        <mxCell id="NhgTdZ-Xcg6zzgM0xqMc-131" style="edgeStyle=orthogonalEdgeStyle;rounded=0;orthogonalLoop=1;jettySize=auto;html=1;entryX=0;entryY=0.5;entryDx=0;entryDy=0;" parent="1" source="NhgTdZ-Xcg6zzgM0xqMc-132" target="NhgTdZ-Xcg6zzgM0xqMc-121" edge="1">
          <mxGeometry relative="1" as="geometry">
            <mxPoint x="400" y="1554.86" as="targetPoint" />
          </mxGeometry>
        </mxCell>
        <mxCell id="NhgTdZ-Xcg6zzgM0xqMc-132" value="&lt;span style=&quot;font-size: 36px;&quot;&gt;kmem.freelist&lt;/span&gt;" style="text;html=1;align=center;verticalAlign=middle;whiteSpace=wrap;rounded=0;" parent="1" vertex="1">
          <mxGeometry x="20" y="1534.86" width="250" height="40" as="geometry" />
        </mxCell>
        <mxCell id="NhgTdZ-Xcg6zzgM0xqMc-134" style="edgeStyle=orthogonalEdgeStyle;rounded=0;orthogonalLoop=1;jettySize=auto;html=1;exitX=0.5;exitY=0;exitDx=0;exitDy=0;entryX=0.25;entryY=0;entryDx=0;entryDy=0;fontSize=24;" parent="1" source="NhgTdZ-Xcg6zzgM0xqMc-122" target="NhgTdZ-Xcg6zzgM0xqMc-125" edge="1">
          <mxGeometry relative="1" as="geometry" />
        </mxCell>
        <mxCell id="NhgTdZ-Xcg6zzgM0xqMc-135" style="edgeStyle=orthogonalEdgeStyle;rounded=0;orthogonalLoop=1;jettySize=auto;html=1;exitX=0.5;exitY=0;exitDx=0;exitDy=0;entryX=0.25;entryY=0;entryDx=0;entryDy=0;fontSize=24;" parent="1" source="NhgTdZ-Xcg6zzgM0xqMc-126" target="NhgTdZ-Xcg6zzgM0xqMc-129" edge="1">
          <mxGeometry relative="1" as="geometry" />
        </mxCell>
        <mxCell id="NhgTdZ-Xcg6zzgM0xqMc-136" value="&lt;span style=&quot;font-size: 36px;&quot;&gt;NULL&lt;/span&gt;" style="text;html=1;align=center;verticalAlign=middle;whiteSpace=wrap;rounded=0;" parent="1" vertex="1">
          <mxGeometry x="1030" y="1534.86" width="140" height="40" as="geometry" />
        </mxCell>
        <mxCell id="NhgTdZ-Xcg6zzgM0xqMc-137" style="edgeStyle=orthogonalEdgeStyle;rounded=0;orthogonalLoop=1;jettySize=auto;html=1;exitX=1;exitY=0.5;exitDx=0;exitDy=0;" parent="1" source="NhgTdZ-Xcg6zzgM0xqMc-130" target="NhgTdZ-Xcg6zzgM0xqMc-136" edge="1">
          <mxGeometry relative="1" as="geometry" />
        </mxCell>
        <mxCell id="NhgTdZ-Xcg6zzgM0xqMc-138" value="" style="group;fontSize=24;" parent="1" vertex="1" connectable="0">
          <mxGeometry x="60" y="1789.86" width="200" height="100" as="geometry" />
        </mxCell>
        <mxCell id="NhgTdZ-Xcg6zzgM0xqMc-139" value="A" style="rounded=1;whiteSpace=wrap;html=1;arcSize=8;fontSize=24;" parent="NhgTdZ-Xcg6zzgM0xqMc-138" vertex="1">
          <mxGeometry width="200" height="100" as="geometry" />
        </mxCell>
        <mxCell id="NhgTdZ-Xcg6zzgM0xqMc-140" value="" style="rounded=1;whiteSpace=wrap;html=1;fontSize=24;" parent="NhgTdZ-Xcg6zzgM0xqMc-138" vertex="1">
          <mxGeometry width="70" height="30" as="geometry" />
        </mxCell>
        <mxCell id="NhgTdZ-Xcg6zzgM0xqMc-141" value="" style="ellipse;whiteSpace=wrap;html=1;aspect=fixed;fillColor=#000000;fontSize=24;" parent="NhgTdZ-Xcg6zzgM0xqMc-138" vertex="1">
          <mxGeometry x="25" y="5" width="20" height="20" as="geometry" />
        </mxCell>
        <mxCell id="NhgTdZ-Xcg6zzgM0xqMc-143" style="edgeStyle=orthogonalEdgeStyle;rounded=0;orthogonalLoop=1;jettySize=auto;html=1;entryX=0;entryY=0.25;entryDx=0;entryDy=0;exitX=1;exitY=0.5;exitDx=0;exitDy=0;" parent="1" source="NhgTdZ-Xcg6zzgM0xqMc-144" target="NhgTdZ-Xcg6zzgM0xqMc-140" edge="1">
          <mxGeometry relative="1" as="geometry">
            <Array as="points">
              <mxPoint x="20" y="1702.86" />
              <mxPoint x="20" y="1796.86" />
            </Array>
          </mxGeometry>
        </mxCell>
        <mxCell id="NhgTdZ-Xcg6zzgM0xqMc-142" value="..." style="shape=process;whiteSpace=wrap;html=1;backgroundOutline=1;" parent="1" vertex="1">
          <mxGeometry x="-160" y="1709.86" width="150" height="20" as="geometry" />
        </mxCell>
        <mxCell id="NhgTdZ-Xcg6zzgM0xqMc-144" value="Level 0 PTE" style="shape=process;whiteSpace=wrap;html=1;backgroundOutline=1;" parent="1" vertex="1">
          <mxGeometry x="-160" y="1694.86" width="150" height="15" as="geometry" />
        </mxCell>
        <mxCell id="NhgTdZ-Xcg6zzgM0xqMc-152" value="Level 0 PTE" style="shape=process;whiteSpace=wrap;html=1;backgroundOutline=1;" parent="1" vertex="1">
          <mxGeometry x="-160" y="1679.86" width="150" height="15" as="geometry" />
        </mxCell>
        <mxCell id="NhgTdZ-Xcg6zzgM0xqMc-153" value="Level 0 PTE" style="shape=process;whiteSpace=wrap;html=1;backgroundOutline=1;" parent="1" vertex="1">
          <mxGeometry x="-160" y="1729.86" width="150" height="15" as="geometry" />
        </mxCell>
        <mxCell id="NhgTdZ-Xcg6zzgM0xqMc-154" value="..." style="shape=process;whiteSpace=wrap;html=1;backgroundOutline=1;" parent="1" vertex="1">
          <mxGeometry x="-160" y="1815.86" width="150" height="20" as="geometry" />
        </mxCell>
        <mxCell id="NhgTdZ-Xcg6zzgM0xqMc-158" style="edgeStyle=orthogonalEdgeStyle;rounded=0;orthogonalLoop=1;jettySize=auto;html=1;exitX=1;exitY=0.25;exitDx=0;exitDy=0;entryX=0;entryY=0.5;entryDx=0;entryDy=0;" parent="1" source="NhgTdZ-Xcg6zzgM0xqMc-155" target="NhgTdZ-Xcg6zzgM0xqMc-140" edge="1">
          <mxGeometry relative="1" as="geometry" />
        </mxCell>
        <mxCell id="NhgTdZ-Xcg6zzgM0xqMc-155" value="Level 0 PTE" style="shape=process;whiteSpace=wrap;html=1;backgroundOutline=1;" parent="1" vertex="1">
          <mxGeometry x="-160" y="1800.86" width="150" height="15" as="geometry" />
        </mxCell>
        <mxCell id="NhgTdZ-Xcg6zzgM0xqMc-156" value="Level 0 PTE" style="shape=process;whiteSpace=wrap;html=1;backgroundOutline=1;" parent="1" vertex="1">
          <mxGeometry x="-160" y="1785.86" width="150" height="15" as="geometry" />
        </mxCell>
        <mxCell id="NhgTdZ-Xcg6zzgM0xqMc-157" value="Level 0 PTE" style="shape=process;whiteSpace=wrap;html=1;backgroundOutline=1;" parent="1" vertex="1">
          <mxGeometry x="-160" y="1835.86" width="150" height="15" as="geometry" />
        </mxCell>
        <mxCell id="NhgTdZ-Xcg6zzgM0xqMc-159" value="..." style="shape=process;whiteSpace=wrap;html=1;backgroundOutline=1;" parent="1" vertex="1">
          <mxGeometry x="-160" y="1919.86" width="150" height="20" as="geometry" />
        </mxCell>
        <mxCell id="NhgTdZ-Xcg6zzgM0xqMc-160" value="Level 0 PTE" style="shape=process;whiteSpace=wrap;html=1;backgroundOutline=1;" parent="1" vertex="1">
          <mxGeometry x="-160" y="1904.86" width="150" height="15" as="geometry" />
        </mxCell>
        <mxCell id="NhgTdZ-Xcg6zzgM0xqMc-161" value="Level 0 PTE" style="shape=process;whiteSpace=wrap;html=1;backgroundOutline=1;" parent="1" vertex="1">
          <mxGeometry x="-160" y="1889.86" width="150" height="15" as="geometry" />
        </mxCell>
        <mxCell id="NhgTdZ-Xcg6zzgM0xqMc-163" style="edgeStyle=orthogonalEdgeStyle;rounded=0;orthogonalLoop=1;jettySize=auto;html=1;exitX=1;exitY=0.5;exitDx=0;exitDy=0;entryX=0;entryY=0.75;entryDx=0;entryDy=0;" parent="1" source="NhgTdZ-Xcg6zzgM0xqMc-160" target="NhgTdZ-Xcg6zzgM0xqMc-140" edge="1">
          <mxGeometry relative="1" as="geometry">
            <Array as="points">
              <mxPoint x="-10" y="1909.86" />
              <mxPoint x="20" y="1909.86" />
              <mxPoint x="20" y="1812.86" />
            </Array>
          </mxGeometry>
        </mxCell>
        <mxCell id="NhgTdZ-Xcg6zzgM0xqMc-162" value="Level 0 PTE" style="shape=process;whiteSpace=wrap;html=1;backgroundOutline=1;" parent="1" vertex="1">
          <mxGeometry x="-160" y="1939.8600000000001" width="150" height="15" as="geometry" />
        </mxCell>
        <mxCell id="R_W9xSKgaOt8MwaazIji-16" value="" style="group" vertex="1" connectable="0" parent="1">
          <mxGeometry x="1930" y="1490.0000000000002" width="180" height="295" as="geometry" />
        </mxCell>
        <mxCell id="R_W9xSKgaOt8MwaazIji-8" value="Page 0 Info" style="rounded=0;whiteSpace=wrap;html=1;fontSize=16;" vertex="1" parent="R_W9xSKgaOt8MwaazIji-16">
          <mxGeometry y="235" width="180" height="60" as="geometry" />
        </mxCell>
        <mxCell id="R_W9xSKgaOt8MwaazIji-9" value="Page 1 info" style="rounded=0;whiteSpace=wrap;html=1;fontSize=16;" vertex="1" parent="R_W9xSKgaOt8MwaazIji-16">
          <mxGeometry y="175" width="180" height="60" as="geometry" />
        </mxCell>
        <mxCell id="R_W9xSKgaOt8MwaazIji-10" value="Page n info" style="rounded=0;whiteSpace=wrap;html=1;fontSize=16;" vertex="1" parent="R_W9xSKgaOt8MwaazIji-16">
          <mxGeometry width="180" height="60" as="geometry" />
        </mxCell>
        <mxCell id="R_W9xSKgaOt8MwaazIji-11" value="..." style="rounded=0;whiteSpace=wrap;html=1;fontSize=16;" vertex="1" parent="R_W9xSKgaOt8MwaazIji-16">
          <mxGeometry y="59.99999999999977" width="180" height="115.14" as="geometry" />
        </mxCell>
        <mxCell id="R_W9xSKgaOt8MwaazIji-17" value="" style="group" vertex="1" connectable="0" parent="1">
          <mxGeometry x="1440" y="1344.86" width="270" height="594.9999999999998" as="geometry" />
        </mxCell>
        <mxCell id="R_W9xSKgaOt8MwaazIji-1" value="Page (4k)" style="rounded=0;whiteSpace=wrap;html=1;fontSize=19;" vertex="1" parent="R_W9xSKgaOt8MwaazIji-17">
          <mxGeometry width="270" height="100" as="geometry" />
        </mxCell>
        <mxCell id="R_W9xSKgaOt8MwaazIji-2" value="Page (4k)" style="rounded=0;whiteSpace=wrap;html=1;fontSize=19;" vertex="1" parent="R_W9xSKgaOt8MwaazIji-17">
          <mxGeometry y="100" width="270" height="100" as="geometry" />
        </mxCell>
        <mxCell id="R_W9xSKgaOt8MwaazIji-3" value="Page (4k)" style="rounded=0;whiteSpace=wrap;html=1;fontSize=19;" vertex="1" parent="R_W9xSKgaOt8MwaazIji-17">
          <mxGeometry y="395.1400000000001" width="270" height="100" as="geometry" />
        </mxCell>
        <mxCell id="R_W9xSKgaOt8MwaazIji-4" value="..." style="rounded=0;whiteSpace=wrap;html=1;fontSize=19;" vertex="1" parent="R_W9xSKgaOt8MwaazIji-17">
          <mxGeometry y="200" width="270" height="195.14" as="geometry" />
        </mxCell>
        <mxCell id="R_W9xSKgaOt8MwaazIji-5" value="Page (4k)" style="rounded=0;whiteSpace=wrap;html=1;fontSize=19;" vertex="1" parent="R_W9xSKgaOt8MwaazIji-17">
          <mxGeometry y="495" width="270" height="100" as="geometry" />
        </mxCell>
        <mxCell id="R_W9xSKgaOt8MwaazIji-7" value="Physical memory is compose of pages.&lt;br&gt;We can make an array store information for each page." style="rounded=1;whiteSpace=wrap;html=1;fontSize=17;align=left;" vertex="1" parent="1">
          <mxGeometry x="1670" y="1314.86" width="450" height="70" as="geometry" />
        </mxCell>
        <mxCell id="R_W9xSKgaOt8MwaazIji-20" style="edgeStyle=none;rounded=0;orthogonalLoop=1;jettySize=auto;html=1;exitX=1;exitY=0.5;exitDx=0;exitDy=0;entryX=0;entryY=0.5;entryDx=0;entryDy=0;" edge="1" parent="1" source="R_W9xSKgaOt8MwaazIji-5" target="R_W9xSKgaOt8MwaazIji-8">
          <mxGeometry relative="1" as="geometry" />
        </mxCell>
        <mxCell id="R_W9xSKgaOt8MwaazIji-23" value="Physical Address as index" style="edgeLabel;html=1;align=center;verticalAlign=middle;resizable=0;points=[];" vertex="1" connectable="0" parent="R_W9xSKgaOt8MwaazIji-20">
          <mxGeometry x="-0.0454" y="3" relative="1" as="geometry">
            <mxPoint x="7" y="3" as="offset" />
          </mxGeometry>
        </mxCell>
        <mxCell id="R_W9xSKgaOt8MwaazIji-21" style="edgeStyle=none;rounded=0;orthogonalLoop=1;jettySize=auto;html=1;exitX=1;exitY=0.5;exitDx=0;exitDy=0;entryX=0;entryY=0.5;entryDx=0;entryDy=0;" edge="1" parent="1" source="R_W9xSKgaOt8MwaazIji-3" target="R_W9xSKgaOt8MwaazIji-9">
          <mxGeometry relative="1" as="geometry" />
        </mxCell>
        <mxCell id="R_W9xSKgaOt8MwaazIji-25" value="Physical Address as index" style="edgeLabel;html=1;align=center;verticalAlign=middle;resizable=0;points=[];" vertex="1" connectable="0" parent="R_W9xSKgaOt8MwaazIji-21">
          <mxGeometry x="-0.0873" relative="1" as="geometry">
            <mxPoint as="offset" />
          </mxGeometry>
        </mxCell>
        <mxCell id="R_W9xSKgaOt8MwaazIji-22" style="edgeStyle=none;rounded=0;orthogonalLoop=1;jettySize=auto;html=1;exitX=1;exitY=0.5;exitDx=0;exitDy=0;entryX=0;entryY=0.5;entryDx=0;entryDy=0;" edge="1" parent="1" source="R_W9xSKgaOt8MwaazIji-1" target="R_W9xSKgaOt8MwaazIji-10">
          <mxGeometry relative="1" as="geometry" />
        </mxCell>
        <mxCell id="R_W9xSKgaOt8MwaazIji-26" value="Physical Address as index" style="edgeLabel;html=1;align=center;verticalAlign=middle;resizable=0;points=[];" vertex="1" connectable="0" parent="R_W9xSKgaOt8MwaazIji-22">
          <mxGeometry x="0.3452" relative="1" as="geometry">
            <mxPoint x="-38" y="-19" as="offset" />
          </mxGeometry>
        </mxCell>
        <mxCell id="R_W9xSKgaOt8MwaazIji-30" value="COW page" style="rounded=1;whiteSpace=wrap;html=1;fontSize=19;" vertex="1" parent="1">
          <mxGeometry x="1210" y="2360" width="150" height="80" as="geometry" />
        </mxCell>
        <mxCell id="R_W9xSKgaOt8MwaazIji-32" style="edgeStyle=none;rounded=0;orthogonalLoop=1;jettySize=auto;html=1;exitX=1;exitY=0.5;exitDx=0;exitDy=0;entryX=0;entryY=0.25;entryDx=0;entryDy=0;" edge="1" parent="1" source="R_W9xSKgaOt8MwaazIji-31" target="R_W9xSKgaOt8MwaazIji-30">
          <mxGeometry relative="1" as="geometry" />
        </mxCell>
        <mxCell id="R_W9xSKgaOt8MwaazIji-31" value="Written in user space" style="ellipse;whiteSpace=wrap;html=1;fontSize=15;" vertex="1" parent="1">
          <mxGeometry x="1000" y="2320" width="140" height="60" as="geometry" />
        </mxCell>
        <mxCell id="R_W9xSKgaOt8MwaazIji-35" style="edgeStyle=none;rounded=0;orthogonalLoop=1;jettySize=auto;html=1;exitX=1;exitY=0.5;exitDx=0;exitDy=0;entryX=0;entryY=0.75;entryDx=0;entryDy=0;" edge="1" parent="1" source="R_W9xSKgaOt8MwaazIji-33" target="R_W9xSKgaOt8MwaazIji-30">
          <mxGeometry relative="1" as="geometry" />
        </mxCell>
        <mxCell id="R_W9xSKgaOt8MwaazIji-33" value="Written in Kernel Space - copyout" style="ellipse;whiteSpace=wrap;html=1;fontSize=15;" vertex="1" parent="1">
          <mxGeometry x="1000" y="2420" width="140" height="60" as="geometry" />
        </mxCell>
        <mxCell id="R_W9xSKgaOt8MwaazIji-40" value="could bypass the COW mechanism since it&#39;s written without the proctection of PTE.W bit." style="shape=callout;whiteSpace=wrap;html=1;perimeter=calloutPerimeter;flipV=1;align=left;" vertex="1" parent="1">
          <mxGeometry x="1120" y="2450" width="150" height="90" as="geometry" />
        </mxCell>
        <mxCell id="R_W9xSKgaOt8MwaazIji-29" value="&lt;h1 style=&quot;font-size: 30px;&quot;&gt;Since Copy-on Write is executed when the page with COW bit set is written with data, think of in what way can the page be written?&lt;/h1&gt;" style="text;html=1;spacing=5;spacingTop=-20;whiteSpace=wrap;overflow=hidden;rounded=0;" vertex="1" parent="1">
          <mxGeometry x="715.1999999999999" y="2090" width="969.61" height="130" as="geometry" />
        </mxCell>
        <mxCell id="R_W9xSKgaOt8MwaazIji-39" value="trigger usertrap" style="shape=callout;whiteSpace=wrap;html=1;perimeter=calloutPerimeter;" vertex="1" parent="1">
          <mxGeometry x="1110" y="2260" width="120" height="90" as="geometry" />
        </mxCell>
        <mxCell id="NhgTdZ-Xcg6zzgM0xqMc-77" value="&lt;h1 style=&quot;font-size: 30px;&quot;&gt;&lt;font style=&quot;font-size: 30px;&quot;&gt;How do we track the reference count (refCnt) of a physical page?&lt;/font&gt;&lt;/h1&gt;&lt;p style=&quot;font-size: 30px;&quot;&gt;&lt;br&gt;&lt;/p&gt;" style="text;html=1;spacing=5;spacingTop=-20;whiteSpace=wrap;overflow=hidden;rounded=0;" parent="1" vertex="1">
          <mxGeometry x="741.0823529411765" y="1140.0033333333333" width="938.235294117647" height="65.33333333333333" as="geometry" />
        </mxCell>
        <mxCell id="NhgTdZ-Xcg6zzgM0xqMc-114" value="&lt;h1 style=&quot;font-size: 30px;&quot;&gt;Copy-on Write Illustration &amp;amp; plan&lt;/h1&gt;" style="text;html=1;spacing=5;spacingTop=-20;whiteSpace=wrap;overflow=hidden;rounded=0;align=center;" parent="1" vertex="1">
          <mxGeometry x="700.8823529411765" y="-389.99666666666667" width="938.235294117647" height="65.33333333333333" as="geometry" />
        </mxCell>
        <mxCell id="R_W9xSKgaOt8MwaazIji-42" value="&lt;div style=&quot;text-align: justify;&quot;&gt;&lt;b style=&quot;color: rgb(255, 0, 0); background-color: initial;&quot;&gt;In this lab, refCnt is the only information stored in the array. Note that if we want to increment or decrement the refCnt, we got to make sure that the R-M-W sequence is done atomically with lock to prevent race condition. For instance, free page could lost randomly.&lt;/b&gt;&lt;/div&gt;" style="rounded=1;whiteSpace=wrap;html=1;align=left;fontSize=15;strokeColor=#FF0000;strokeWidth=3;" vertex="1" parent="1">
          <mxGeometry x="1760" y="1876.14" width="510" height="107.43" as="geometry" />
        </mxCell>
        <mxCell id="R_W9xSKgaOt8MwaazIji-45" value="" style="group" vertex="1" connectable="0" parent="1">
          <mxGeometry x="2160" y="1690" width="320" height="203.22000000000003" as="geometry" />
        </mxCell>
        <mxCell id="R_W9xSKgaOt8MwaazIji-44" value="" style="shape=callout;whiteSpace=wrap;html=1;perimeter=calloutPerimeter;size=25;position=0.2;position2=0.2;" vertex="1" parent="R_W9xSKgaOt8MwaazIji-45">
          <mxGeometry width="320" height="203.22" as="geometry" />
        </mxCell>
        <mxCell id="R_W9xSKgaOt8MwaazIji-43" value="&lt;font color=&quot;#ffffff&quot;&gt;test preempt: kill... wait... OK&lt;br&gt;test exitwait: OK&lt;br&gt;test rmdot: OK&lt;br&gt;test fourteen: OK&lt;br&gt;test bigfile: OK&lt;br&gt;test dirfile: OK&lt;br&gt;test iref: OK&lt;br&gt;test forktest: OK&lt;br&gt;test bigdir: OK&lt;br&gt;FAILED -- lost some free pages 32471 (out of 32472)&lt;/font&gt;" style="text;whiteSpace=wrap;html=1;fillColor=#000000;" vertex="1" parent="R_W9xSKgaOt8MwaazIji-45">
          <mxGeometry x="10" y="10" width="300" height="160" as="geometry" />
        </mxCell>
      </root>
    </mxGraphModel>
  </diagram>
</mxfile>
